<svg width="20" height="20" viewBox="0 0 20 20" fill="none" xmlns="http://www.w3.org/2000/svg">
    <g clip-path="url(#clip0_6874_33370)">
        <path d="M20 0H0V20H20V0Z" fill="#00EC97" />
        <path
            d="M14.3227 4.50781C13.9158 4.50781 13.5381 4.71878 13.3249 5.06557L11.0285 8.47496C10.9537 8.58731 10.9841 8.73881 11.0964 8.81361C11.1875 8.87433 11.308 8.86681 11.391 8.79546L13.6514 6.83489C13.6889 6.80109 13.7468 6.80453 13.7806 6.84209C13.796 6.85931 13.8041 6.88153 13.8041 6.90437V13.0427C13.8041 13.0934 13.7631 13.1341 13.7124 13.1341C13.6852 13.1341 13.6595 13.1222 13.6423 13.1012L6.80943 4.92222C6.58689 4.65961 6.26014 4.50813 5.91615 4.50781H5.67736C5.03102 4.50781 4.50708 5.03176 4.50708 5.67809V14.3235C4.50708 14.9698 5.03102 15.4937 5.67736 15.4937C6.08423 15.4937 6.46201 15.2828 6.67515 14.936L8.97156 11.5266C9.04636 11.4142 9.01601 11.2627 8.90364 11.1879C8.81256 11.1272 8.69206 11.1347 8.60912 11.2061L6.34871 13.1667C6.31115 13.2005 6.25325 13.197 6.21945 13.1595C6.20412 13.1422 6.19597 13.12 6.19628 13.0972V6.95728C6.19628 6.90657 6.23728 6.86587 6.28799 6.86587C6.31491 6.86587 6.34089 6.87778 6.3581 6.89874L13.19 15.0793C13.4126 15.3419 13.7393 15.4934 14.0833 15.4937H14.3221C14.9684 15.4941 15.4927 14.9704 15.4933 14.3241V5.67809C15.4933 5.03176 14.9694 4.50781 14.323 4.50781H14.3227Z"
            fill="black" />
    </g>
    <defs>
        <clipPath id="clip0_6874_33370">
            <rect width="20" height="20" rx="10" fill="white" />
        </clipPath>
    </defs>
</svg>
