<svg width="44" height="44" viewBox="0 0 44 44" fill="none" xmlns="http://www.w3.org/2000/svg">
<g clip-path="url(#clip0_7043_77882)">
<path d="M0 0H20.2486H23.7066H44V20.6334V23.3129V44H23.5029H20.38H0V23.4878V20.4739V0Z" fill="#F0B90B"/>
<path d="M17.036 15.677C17.1902 15.7045 17.7944 16.0934 17.9758 16.2018L20.3891 17.6495C20.8248 17.9132 21.5332 18.3731 21.9829 18.5599C22.5102 18.357 23.3551 17.8073 23.88 17.4946L26.9566 15.6572C27.1933 15.7815 27.645 16.0733 27.9002 16.2266C28.5359 16.6083 29.1655 16.9505 29.8055 17.316C29.8943 17.797 29.8607 20.1021 29.8606 20.7476C29.4273 21.0945 25.3414 23.5155 24.8751 23.6678C24.9033 24.5018 24.884 25.4339 24.8849 26.2753C24.8836 27.1493 24.8385 28.7751 24.9207 29.5753C23.8896 29.9987 22.9113 30.8433 22.0006 31.2238C21.0807 30.8089 20.0169 29.9116 19.1188 29.5968C19.1581 28.9912 19.133 28.1194 19.1331 27.497L19.1372 23.6656C18.794 23.561 17.1957 22.5886 16.8097 22.3527C16.0419 21.8835 14.896 21.2911 14.1826 20.7858C14.0891 19.7705 14.1621 18.5301 14.1955 17.5068C14.2039 17.2502 14.9648 16.9027 15.1972 16.768C15.8159 16.4142 16.429 16.0506 17.036 15.677Z" fill="#FEFEFE"/>
<path d="M9.20902 20.3359C9.81643 20.5299 11.4295 21.6376 12.1137 21.9957C12.0779 23.8919 12.1146 25.8994 12.1188 27.8018C13.7531 28.7228 15.391 29.7647 17.0572 30.6987C17.0633 31.7852 17.0914 33.0484 17.0442 34.1242C16.6271 33.9541 15.342 33.1465 14.8912 32.8817C13.6452 32.1499 12.4094 31.4046 11.1454 30.696C10.4845 30.3256 9.94598 29.8548 9.19141 29.6014C9.25711 26.5487 9.1765 23.404 9.20902 20.3359Z" fill="#FEFEFE"/>
<path d="M34.6829 20.3633L34.7405 20.3797C34.9051 20.6249 34.764 28.3038 34.8226 29.5829C34.034 29.894 33.3487 30.4121 32.6115 30.837L27.0446 34.0955L26.9856 34.0991C26.8949 33.9826 26.9451 31.0657 26.9489 30.705C28.449 29.861 30.4834 28.7149 31.8921 27.7834L31.895 21.9874C32.7164 21.6023 33.785 20.8131 34.6829 20.3633Z" fill="#FEFEFE"/>
<path d="M21.9813 7.00098C22.4618 7.14131 23.4866 7.82611 23.9832 8.1247L26.1975 9.43572C27.3352 10.1162 28.785 10.8742 29.8761 11.607C29.011 12.1277 27.8715 12.745 26.977 13.2443C26.8122 13.2062 26.1315 12.8043 25.9436 12.6964C25.2016 12.2689 24.4645 11.8329 23.7325 11.3883C23.1986 11.0656 22.6187 10.6935 22.0582 10.4292C21.6814 10.3772 17.8517 12.9511 17.0575 13.2278C16.7559 13.1697 14.6363 11.8786 14.1211 11.6279C14.3739 11.4311 14.9506 11.1018 15.2444 10.9274L17.718 9.49213C18.3224 9.13592 18.8934 8.7547 19.515 8.42178C20.3502 7.97443 21.1003 7.36552 21.9813 7.00098Z" fill="#FEFEFE"/>
<path d="M31.8203 12.802C32.1456 12.7806 34.1394 14.1637 34.8189 14.4336C34.7725 15.5095 34.803 16.7663 34.8066 17.8569C34.5822 17.9772 34.2548 18.192 34.013 18.3326C33.3607 18.7118 32.6028 19.1256 31.9864 19.5549C31.9258 19.5552 31.9557 19.5582 31.892 19.5103C31.8735 18.4136 31.8959 17.3006 31.8812 16.1974C31.7821 16.144 31.4225 15.9402 31.3539 15.8796C31.0698 15.6284 29.1448 14.6578 29.0508 14.4837C29.0894 14.4062 31.566 12.9225 31.8203 12.802Z" fill="#FEFEFE"/>
<path d="M12.0474 12.8018C12.3502 12.8021 14.5133 14.2056 15.0471 14.4742C14.3771 14.8461 13.7124 15.2275 13.0533 15.6184C12.7324 15.8086 12.4482 16.0143 12.1141 16.181C12.0645 17.1719 12.1013 18.5279 12.1012 19.5387C11.9686 19.5829 9.60885 18.0722 9.20984 17.8759C9.17061 16.7513 9.21754 15.5743 9.1875 14.4325C10.1092 14.0892 11.146 13.2161 12.0474 12.8018Z" fill="#FEFEFE"/>
<path d="M19.0977 31.9433C19.4216 32.0565 19.7148 32.2731 20.0099 32.4477C20.6567 32.8302 21.3176 33.3048 22.0054 33.6014C23.0374 33.1041 23.9033 32.4381 24.8734 31.9385C24.9017 33.0663 24.8821 34.2379 24.8966 35.374C24.0031 35.7162 22.9933 36.6141 21.9913 37.0004C20.9912 36.6202 20.0982 35.7984 19.1139 35.3729C19.1368 34.2687 19.1177 33.0494 19.0977 31.9433Z" fill="#FEFEFE"/>
<path d="M21.9544 12.8057C22.2395 12.8136 24.487 14.2411 24.9388 14.4876C23.9463 15.0106 22.9752 15.6101 22.0146 16.1925L21.9555 16.1906C21.62 15.9828 19.2533 14.6097 19.1973 14.4707C19.2779 14.3581 21.7112 12.9038 21.9544 12.8057Z" fill="#FEFEFE"/>
<path d="M14.1484 23.2197C14.7735 23.5062 16.4539 24.5142 17.0529 24.9153C17.0722 25.2699 17.0997 28.1676 17.0071 28.3202C16.4627 27.9651 15.9075 27.627 15.3421 27.3065C14.0457 26.5644 14.146 26.8972 14.1557 25.3514C14.1647 24.6408 14.1623 23.9302 14.1484 23.2197Z" fill="#FEFEFE"/>
<path d="M29.7752 23.2373L29.8361 23.316C29.8928 24.2843 29.8399 25.4505 29.8356 26.4322C29.8346 26.6601 29.59 26.7755 29.4102 26.8815C28.6237 27.3452 27.8014 27.7696 27.0488 28.2886L27.002 28.2969L26.9437 28.256L26.9434 24.9263C27.681 24.4038 28.9592 23.7183 29.7752 23.2373Z" fill="#FEFEFE"/>
</g>
<defs>
<clipPath id="clip0_7043_77882">
<rect width="44" height="44" rx="22" fill="white"/>
</clipPath>
</defs>
</svg>
