<svg width="20" height="20" viewBox="0 0 20 20" fill="none" xmlns="http://www.w3.org/2000/svg">
<g clip-path="url(#clip0_6537_5128)">
<path d="M0 0H20V20H0V0Z" fill="black"/>
<path d="M9.87402 6.41431C9.89704 6.41197 9.92015 6.41054 9.9433 6.41005C10.8041 6.39169 11.0538 7.03433 11.4289 7.66359L12.3344 9.19003L13.2825 10.7808C13.5143 11.1655 13.7619 11.5593 13.9668 11.9578C14.0534 12.1417 14.1345 12.2887 14.1319 12.4949C14.1252 13.0202 13.731 13.5748 13.2003 13.6735C12.7734 13.7529 12.3102 13.7282 11.8758 13.7282L10.1077 13.7267L8.10978 13.7274C7.71564 13.7276 7.35322 13.7297 6.9481 13.709C6.14203 13.6679 5.53767 12.7741 5.93074 12.0284C6.1541 11.6046 6.40538 11.1878 6.66064 10.7684L7.64841 9.11376L8.49665 7.67929C8.85443 7.07242 9.08412 6.48163 9.87402 6.41431Z" fill="#FEFEFE"/>
</g>
<defs>
<clipPath id="clip0_6537_5128">
<rect width="20" height="20" rx="10" fill="white"/>
</clipPath>
</defs>
</svg>
