<svg width="20" height="20" viewBox="0 0 20 20" fill="none" xmlns="http://www.w3.org/2000/svg">
<g clip-path="url(#clip0_6537_4825)">
<path d="M9.35637 0H10.6416C10.7013 0.0429924 11.0844 0.0444727 11.1869 0.0559268C11.6882 0.114258 12.1842 0.211652 12.6703 0.347223C16.7072 1.51414 19.4466 4.77082 19.9627 8.87807C19.9701 8.93742 19.9957 9.2848 20 9.29111V10.7777C19.9113 11.3995 19.8748 11.8089 19.7189 12.43C19.1544 14.6741 17.8326 16.6547 15.9769 18.0372C15.0843 18.7005 14.0869 19.2096 13.0261 19.5434C12.6742 19.6521 12.3176 19.7455 11.9576 19.823C11.7715 19.8613 11.0533 19.9434 10.9757 20H9.00502L8.98807 19.9916C8.87213 19.9332 8.40801 19.884 8.24883 19.8545C7.96518 19.801 7.6834 19.7379 7.40395 19.6656C5.41389 19.133 3.63689 17.9987 2.3159 16.4179C1.14902 15.004 0.403342 13.3826 0.108573 11.5604C0.0824467 11.3989 0.0104926 10.8889 0.0266611 10.7416L0.0289238 10.7228L0 10.7049V9.29566L0.0309613 9.28406C0.0118238 8.8867 0.173613 8.01465 0.273988 7.6142C1.15306 4.10709 3.74279 1.37347 7.23547 0.377809C7.73271 0.233754 8.24057 0.129275 8.7543 0.0653533C8.86012 0.053002 9.2968 0.0422793 9.35637 0Z" fill="#10FF7F"/>
<path d="M6.76944 3.11362C8.13221 3.08018 9.62741 3.10957 10.9985 3.11012L12.2723 3.10803C12.522 3.10745 12.7974 3.09379 13.0505 3.12577C14.0586 3.25299 13.7125 4.36666 13.7722 5.05719C13.8908 6.43008 12.8976 6.22483 11.9038 6.22422L8.56278 6.2218L7.5876 6.22116C7.20155 6.22053 6.85178 6.1751 6.51694 6.39674C6.07414 6.74955 6.2585 7.40438 6.22088 7.90227C6.16362 8.66043 6.54252 9.91463 5.4017 9.99487C5.0103 10.0194 4.59557 9.9784 4.20676 10.0001C2.73682 10.082 3.16809 8.77916 3.11088 7.81809C3.08864 7.44432 3.07909 6.75639 3.1678 6.41782C3.37227 5.63748 4.52659 5.92147 5.10891 5.86002C6.76334 5.66286 4.90955 3.21664 6.76944 3.11362Z" fill="#131313"/>
<path d="M14.6301 10.0078C14.6492 10.0069 14.6684 10.0061 14.6875 10.0054C14.906 9.99773 15.1845 9.99621 15.4043 9.999C15.8114 10.0042 16.338 9.93267 16.6545 10.2352C16.8232 10.3964 16.8881 10.6259 16.8884 10.8518C16.8891 11.3661 16.8929 11.8787 16.8905 12.3931C16.8889 12.733 16.9091 13.1216 16.8626 13.4548C16.8426 13.598 16.7866 13.7519 16.6837 13.8521C16.5869 13.9464 16.4033 14.0774 16.2717 14.1036C15.8527 14.1808 15.391 14.1307 14.9635 14.1398C13.2431 14.1763 14.9803 16.5982 13.4195 16.8794C13.2323 16.9131 12.9825 16.8984 12.788 16.8972L11.8911 16.8944L8.50573 16.8951C7.96708 16.8932 7.3936 16.9268 6.86976 16.8678C6.53413 16.8301 6.21573 16.4744 6.23259 16.1485C6.25722 15.6728 6.15421 14.8194 6.25542 14.3801C6.28421 14.2591 6.34196 14.1469 6.4237 14.0531C6.68905 13.7431 7.13114 13.7852 7.4997 13.7838C7.79954 13.7826 8.09966 13.7841 8.39954 13.7843L11.4124 13.7863C11.9255 13.787 12.4618 13.7948 12.9726 13.7811C13.2805 13.7728 13.5734 13.6219 13.6974 13.3284C13.8031 13.0785 13.7831 12.8063 13.7815 12.5354L13.7748 11.4603C13.7705 10.7631 13.6973 10.0694 14.6301 10.0078Z" fill="#131313"/>
<path d="M9.35272 8.44635C9.67586 8.43465 10.082 8.45375 10.3846 8.43942C11.5114 8.38602 11.6063 8.88678 11.5615 9.84705C11.5288 10.5498 11.7781 11.5112 10.7112 11.5479C10.2045 11.5497 9.58299 11.5837 9.09932 11.5216C8.35 11.4254 8.45247 10.5282 8.45557 10.0216C8.46036 9.24281 8.32241 8.48709 9.35272 8.44635Z" fill="#131313"/>
</g>
<defs>
<clipPath id="clip0_6537_4825">
<rect width="20" height="20" fill="white"/>
</clipPath>
</defs>
</svg>
