<svg width="28" height="28" viewBox="0 0 28 28" fill="none" xmlns="http://www.w3.org/2000/svg">
<rect width="28" height="28" rx="14" fill="#1C1917"/>
<path d="M8.50883 17.1583C8.29002 17.3771 8.16706 17.6738 8.16699 17.9832V19.2502C8.16699 19.4049 8.22845 19.5533 8.33785 19.6627C8.44724 19.7721 8.59562 19.8335 8.75033 19.8335H10.5003C10.655 19.8335 10.8034 19.7721 10.9128 19.6627C11.0222 19.5533 11.0837 19.4049 11.0837 19.2502V18.6668C11.0837 18.5121 11.1451 18.3638 11.2545 18.2544C11.3639 18.145 11.5123 18.0835 11.667 18.0835H12.2503C12.405 18.0835 12.5534 18.0221 12.6628 17.9127C12.7722 17.8033 12.8337 17.6549 12.8337 17.5002V16.9168C12.8337 16.7621 12.8951 16.6138 13.0045 16.5044C13.1139 16.395 13.2623 16.3335 13.417 16.3335H13.5173C13.8267 16.3334 14.1234 16.2105 14.3422 15.9917L14.817 15.5168C15.6277 15.7993 16.5103 15.7982 17.3204 15.5138C18.1304 15.2294 18.82 14.6785 19.2762 13.9512C19.7325 13.224 19.9284 12.3634 19.832 11.5104C19.7356 10.6573 19.3525 9.86216 18.7454 9.25509C18.1383 8.64803 17.3432 8.26495 16.4901 8.16853C15.6371 8.07211 14.7765 8.26805 14.0493 8.7243C13.322 9.18055 12.7711 9.8701 12.4867 10.6801C12.2023 11.4902 12.2012 12.3728 12.4837 13.1835L8.50883 17.1583Z" stroke="#FAFAFA" stroke-width="0.875" stroke-linecap="round" stroke-linejoin="round"/>
<path d="M16.6247 11.6663C16.7858 11.6663 16.9163 11.5358 16.9163 11.3747C16.9163 11.2136 16.7858 11.083 16.6247 11.083C16.4636 11.083 16.333 11.2136 16.333 11.3747C16.333 11.5358 16.4636 11.6663 16.6247 11.6663Z" fill="#FAFAFA" stroke="#FAFAFA" stroke-width="0.875" stroke-linecap="round" stroke-linejoin="round"/>
</svg>
