<svg width="28" height="28" viewBox="0 0 28 28" fill="none" xmlns="http://www.w3.org/2000/svg">
<rect width="28" height="28" rx="14" fill="#A99FF1"/>
<path fill-rule="evenodd" clip-rule="evenodd" d="M17.4899 7.03133C20.9842 6.6853 22.9342 9.24959 22.6187 12.5613C22.4133 14.7182 21.6031 16.9152 19.9796 18.4064C19.3808 18.9562 18.1437 19.506 17.4698 18.8383C17.224 18.5866 17.2588 18.0784 17.2951 17.7372C16.8701 18.4257 16.3039 19.0162 15.6334 19.4698C13.8933 20.6302 11.8919 20.3057 12.4934 17.7387C12.3806 17.9219 12.2153 18.139 12.0875 18.3171C12.0108 18.4181 11.9322 18.5176 11.8518 18.6157C10.9211 19.7639 9.74167 20.8123 8.21251 20.9782C6.88955 21.1217 5.92421 20.562 5.84319 19.1484C5.69717 16.6008 7.31397 13.9126 8.91699 12.0379C11.0415 9.55331 14.1599 7.2964 17.4899 7.03133ZM19.5747 10.5459C18.3418 10.8383 18.5274 12.7785 19.7217 12.774C20.8956 12.4823 20.7789 10.6033 19.5747 10.5459ZM17.0789 12.7521C18.1637 12.264 17.9205 10.3963 16.6395 10.5789C15.4868 11.1333 15.9213 12.968 17.0789 12.7521Z" fill="#FEFEFB"/>
</svg>
