<svg width="31" height="28" viewBox="0 0 31 28" fill="none" xmlns="http://www.w3.org/2000/svg"><mask id="path-1-outside-1_30944_9182" maskUnits="userSpaceOnUse" x="-0.300781" y="-0.27832" width="31" height="28" fill="black"><rect fill="white" x="-0.300781" y="-0.27832" width="31" height="28"></rect><path d="M15.3818 23.9434L18.0127 26.1357L17.3291 26.7217L15.3252 24.0205L13.3213 26.7217L12.6377 26.1357L15.2676 23.9434L15.0811 23.6924L15.3252 23.8955L15.5693 23.6924L15.3818 23.9434ZM10.0967 19.7861C12.9893 20.568 14.5599 22.6529 14.9834 23.5977C14.9296 23.5872 14.8758 23.5746 14.8223 23.5625C12.8661 25.0402 9.8423 25.2282 8.77637 24.6768C10.8469 23.3076 12.9877 23.211 14.2236 23.3926C12.1214 22.6782 10.3591 20.8347 10.0967 19.7861ZM20.5537 19.7861C20.2913 20.8348 18.5283 22.6783 16.4258 23.3926C17.6616 23.2108 19.8031 23.3073 21.874 24.6768C20.808 25.2284 17.7824 25.0411 15.8262 23.5625C15.7732 23.5744 15.7202 23.5874 15.667 23.5977C16.0905 22.6529 17.661 20.568 20.5537 19.7861ZM18.6729 22.6729C19.3251 22.3358 21.4717 21.8068 23.1338 22.8457C22.4531 23.3665 20.2237 23.4823 18.6729 22.6729ZM6.83105 22.8105C8.6114 21.6978 10.911 22.266 11.6094 22.627C9.94802 23.4937 7.55949 23.3685 6.83105 22.8105ZM2.66797 20.6152C3.54631 20.2596 6.6247 19.6734 8.89746 21.6758C8.29859 22.0599 4.31063 22.0623 2.66797 20.6152ZM21.7422 21.6729C24.0154 19.6701 27.094 20.2567 27.9717 20.6123C26.3295 22.0591 22.3426 22.0567 21.7422 21.6729ZM6.56445 16.3613C7.41143 16.7848 9.8877 18.7076 9.8877 21.7373C9.2036 21.5418 6.56445 18.5505 6.56445 16.3613ZM24.0703 16.3613C24.0703 18.5505 21.4322 21.5417 20.748 21.7373C20.748 18.7078 23.2232 16.785 24.0703 16.3613ZM2.66797 17.0967C3.6154 17.0874 6.69428 17.669 8.07617 20.3643C7.37791 20.5022 3.66654 19.0447 2.66797 17.0967ZM27.9717 17.0967C26.973 19.0448 23.2604 20.5024 22.5625 20.3643C23.9446 17.6684 27.0248 17.0872 27.9717 17.0967ZM4.82617 13.333C5.52368 14.1855 6.15274 15.6836 5.33496 17.5605C4.96386 17.2544 4.23533 14.6891 4.82617 13.333ZM25.918 13.5537C26.4695 14.8195 25.7887 17.2137 25.4424 17.499C24.6793 15.7474 25.267 14.3493 25.918 13.5537ZM0.699219 13.498C2.0713 13.7139 3.92098 14.5938 4.72852 17.0459C4.12271 17.07 1.38296 15.873 0.699219 13.498ZM29.9287 13.498C29.245 15.873 26.5053 17.07 25.8994 17.0459C26.707 14.5938 28.5566 13.7139 29.9287 13.498ZM1.48926 10.123C2.72869 10.75 4.21819 12.1556 4.2334 14.7373C3.64925 14.5739 1.4104 12.593 1.48926 10.123ZM29.1494 10.123C29.2283 12.5932 26.9892 14.5742 26.4053 14.7373C26.4205 12.1557 27.91 10.7501 29.1494 10.123ZM6.04297 8.15234C6.3414 9.50893 6.19504 11.5515 4.20508 13.1963C3.96237 12.6395 4.08065 9.65333 6.04297 8.15234ZM24.6025 8.15234C26.5651 9.65324 26.6841 12.6394 26.4414 13.1963C24.4515 11.5515 24.3041 9.50893 24.6025 8.15234ZM1.58301 6.39355C2.67675 7.24959 4.02806 8.74422 3.54102 11.2793C2.99997 11.0057 1.02501 8.80127 1.58301 6.39355ZM29.0518 6.39355C29.6096 8.80065 27.6364 11.0048 27.0947 11.2793C26.6076 8.74425 27.958 7.24962 29.0518 6.39355ZM26.54 4.91406C27.7531 6.46071 27.073 8.71435 26.7754 9.09375C25.8643 7.49345 26.2531 5.86102 26.54 4.91406ZM4.11035 4.89258C4.39844 5.84317 4.78758 7.48143 3.87305 9.08789C3.57409 8.70568 2.89308 6.44456 4.11035 4.89258ZM8.77637 4.63672C8.22774 5.75333 7.18495 7.58707 4.97461 8.27637C5.02664 7.67216 6.33476 5.01772 8.77637 4.63672ZM21.873 4.63672C24.3149 5.01752 25.6238 7.67217 25.6758 8.27637C23.4652 7.5871 22.4217 5.75335 21.873 4.63672ZM6.03613 1.12207C6.67592 2.19543 6.67581 4.63832 5.20996 6.49512C4.86052 5.99912 4.4144 2.98646 6.03613 1.12207ZM24.6104 1.12207C26.232 2.98642 25.786 5.99901 25.4365 6.49512C23.9707 4.6383 23.9705 2.19541 24.6104 1.12207ZM9.50293 0.72168C9.58491 1.96854 8.4741 4.14446 6.32422 5.13184C6.23886 4.53049 7.21125 1.64471 9.50293 0.72168ZM21.1426 0.72168C23.4346 1.64465 24.4068 4.53074 24.3213 5.13184C22.1718 4.14434 21.0606 1.96843 21.1426 0.72168Z"></path></mask><path d="M15.3818 23.9434L14.9813 23.6441L14.6975 24.0239L15.0617 24.3275L15.3818 23.9434ZM18.0127 26.1357L18.3381 26.5154L18.7873 26.1304L18.3328 25.7516L18.0127 26.1357ZM17.3291 26.7217L16.9275 27.0196L17.2472 27.4504L17.6545 27.1013L17.3291 26.7217ZM15.3252 24.0205L15.7268 23.7226L15.3252 23.1813L14.9236 23.7226L15.3252 24.0205ZM13.3213 26.7217L12.9959 27.1013L13.4032 27.4504L13.7229 27.0196L13.3213 26.7217ZM12.6377 26.1357L12.3175 25.7517L11.8632 26.1304L12.3123 26.5154L12.6377 26.1357ZM15.2676 23.9434L15.5877 24.3274L15.9509 24.0246L15.6689 23.6451L15.2676 23.9434ZM15.0811 23.6924L15.4008 23.308L14.6797 23.9906L15.0811 23.6924ZM15.3252 23.8955L15.0054 24.2799L15.3252 24.5459L15.645 24.2799L15.3252 23.8955ZM15.5693 23.6924L15.9699 23.9916L15.2495 23.308L15.5693 23.6924ZM10.0967 19.7861L10.2272 19.3035L9.40483 19.0812L9.61164 19.9075L10.0967 19.7861ZM14.9834 23.5977L14.8884 24.0885L15.8334 24.2715L15.4397 23.3931L14.9834 23.5977ZM14.8223 23.5625L14.9321 23.0747L14.7059 23.0238L14.5209 23.1635L14.8223 23.5625ZM8.77637 24.6768L8.50058 24.2597L7.79016 24.7295L8.54661 25.1208L8.77637 24.6768ZM14.2236 23.3926L14.151 23.8873L14.3845 22.9192L14.2236 23.3926ZM20.5537 19.7861L21.0388 19.9075L21.2455 19.0812L20.4233 19.3035L20.5537 19.7861ZM16.4258 23.3926L16.265 22.9192L16.4985 23.8873L16.4258 23.3926ZM21.874 24.6768L22.1038 25.1208L22.8601 24.7294L22.1498 24.2597L21.874 24.6768ZM15.8262 23.5625L16.1277 23.1636L15.9427 23.0238L15.7164 23.0747L15.8262 23.5625ZM15.667 23.5977L15.2107 23.3931L14.817 24.2715L15.762 24.0885L15.667 23.5977ZM18.6729 22.6729L18.4433 22.2287L17.588 22.6706L18.4415 23.1161L18.6729 22.6729ZM23.1338 22.8457L23.4376 23.2428L24.0108 22.8042L23.3988 22.4217L23.1338 22.8457ZM6.83105 22.8105L6.56605 22.3866L5.95438 22.7689L6.52701 23.2075L6.83105 22.8105ZM11.6094 22.627L11.8407 23.0702L12.6943 22.6249L11.839 22.1828L11.6094 22.627ZM2.66797 20.6152L2.48034 20.1518L1.7302 20.4555L2.33746 20.9904L2.66797 20.6152ZM8.89746 21.6758L9.16739 22.0967L9.72534 21.7388L9.228 21.3006L8.89746 21.6758ZM21.7422 21.6729L21.4117 21.2977L20.9135 21.7366L21.4729 22.0941L21.7422 21.6729ZM27.9717 20.6123L28.3022 20.9875L28.9092 20.4527L28.1594 20.1489L27.9717 20.6123ZM6.56445 16.3613L6.78807 15.9141L6.06445 15.5523V16.3613H6.56445ZM9.8877 21.7373L9.75033 22.2181L10.3877 22.4002V21.7373H9.8877ZM24.0703 16.3613H24.5703V15.5522L23.8467 15.9141L24.0703 16.3613ZM20.748 21.7373H20.248V22.4002L20.8855 22.2181L20.748 21.7373ZM2.66797 17.0967L2.66305 16.5967L1.85389 16.6047L2.22302 17.3248L2.66797 17.0967ZM8.07617 20.3643L8.17307 20.8548L8.82366 20.7263L8.5211 20.1361L8.07617 20.3643ZM27.9717 17.0967L28.4166 17.3248L28.7857 16.6048L27.9767 16.5967L27.9717 17.0967ZM22.5625 20.3643L22.1176 20.1361L21.8151 20.726L22.4654 20.8547L22.5625 20.3643ZM4.82617 13.333L5.21316 13.0164L4.69477 12.3828L4.36779 13.1333L4.82617 13.333ZM5.33496 17.5605L5.01675 17.9462L5.5284 18.3684L5.79334 17.7603L5.33496 17.5605ZM25.918 13.5537L26.3764 13.354L26.0494 12.6035L25.531 13.2371L25.918 13.5537ZM25.4424 17.499L24.984 17.6987L25.2487 18.3065L25.7603 17.8849L25.4424 17.499ZM0.699219 13.498L0.776935 13.0041L0.00159359 12.8821L0.218734 13.6364L0.699219 13.498ZM4.72852 17.0459L4.74842 17.5455L5.41077 17.5191L5.20343 16.8895L4.72852 17.0459ZM29.9287 13.498L30.4092 13.6364L30.6263 12.8821L29.851 13.0041L29.9287 13.498ZM25.8994 17.0459L25.4245 16.8895L25.2171 17.5192L25.8796 17.5455L25.8994 17.0459ZM1.48926 10.123L1.71495 9.67688L1.01456 9.32259L0.989512 10.1071L1.48926 10.123ZM4.2334 14.7373L4.0987 15.2188L4.7373 15.3975L4.73339 14.7344L4.2334 14.7373ZM29.1494 10.123L29.6492 10.1071L29.6241 9.32256L28.9237 9.67689L29.1494 10.123ZM26.4053 14.7373L25.9053 14.7344L25.9014 15.3972L26.5398 15.2189L26.4053 14.7373ZM6.04297 8.15234L6.53129 8.04492L6.36265 7.27832L5.73919 7.7552L6.04297 8.15234ZM4.20508 13.1963L3.74674 13.3961L4.01199 14.0046L4.52363 13.5817L4.20508 13.1963ZM24.6025 8.15234L24.9063 7.75518L24.2828 7.27838L24.1142 8.04493L24.6025 8.15234ZM26.4414 13.1963L26.1229 13.5817L26.6345 14.0046L26.8998 13.3961L26.4414 13.1963ZM1.58301 6.39355L1.89118 5.99981L1.27312 5.51608L1.09592 6.28067L1.58301 6.39355ZM3.54102 11.2793L3.31537 11.7255L3.90696 12.0247L4.03204 11.3736L3.54102 11.2793ZM29.0518 6.39355L29.5388 6.28067L29.3616 5.51606L28.7436 5.99982L29.0518 6.39355ZM27.0947 11.2793L26.6037 11.3736L26.7289 12.0253L27.3208 11.7253L27.0947 11.2793ZM26.54 4.91406L26.9335 4.60549L26.3403 3.84922L26.0615 4.76905L26.54 4.91406ZM26.7754 9.09375L26.3409 9.34113L26.7092 9.98816L27.1688 9.40236L26.7754 9.09375ZM4.11035 4.89258L4.58886 4.74756L4.3101 3.82773L3.71693 4.584L4.11035 4.89258ZM3.87305 9.08789L3.47921 9.39594L3.93864 9.98331L4.30757 9.33526L3.87305 9.08789ZM8.77637 4.63672L9.22513 4.85721L9.649 3.9945L8.69928 4.1427L8.77637 4.63672ZM4.97461 8.27637L4.47645 8.23347L4.41256 8.97539L5.12346 8.7537L4.97461 8.27637ZM21.873 4.63672L21.9501 4.14269L21.0005 3.9946L21.4243 4.8572L21.873 4.63672ZM25.6758 8.27637L25.5269 8.7537L26.2378 8.97535L26.1739 8.23349L25.6758 8.27637ZM6.03613 1.12207L6.46562 0.866068L6.11207 0.27292L5.65888 0.793921L6.03613 1.12207ZM5.20996 6.49512L4.80122 6.78309L5.18717 7.33091L5.60241 6.80493L5.20996 6.49512ZM24.6104 1.12207L24.9876 0.793925L24.5344 0.272924L24.1809 0.866059L24.6104 1.12207ZM25.4365 6.49512L25.0441 6.80493L25.4594 7.33097L25.8453 6.78304L25.4365 6.49512ZM9.50293 0.72168L10.0019 0.688874L9.95655 -6.23465e-05L9.31612 0.257887L9.50293 0.72168ZM6.32422 5.13184L5.82918 5.2021L5.92343 5.86612L6.5329 5.58621L6.32422 5.13184ZM21.1426 0.72168L21.3293 0.257871L20.689 -3.75509e-06L20.6437 0.688874L21.1426 0.72168ZM24.3213 5.13184L24.1126 5.58618L24.7219 5.8661L24.8163 5.20226L24.3213 5.13184ZM15.3818 23.9434L15.0617 24.3275L17.6926 26.5199L18.0127 26.1357L18.3328 25.7516L15.7019 23.5592L15.3818 23.9434ZM18.0127 26.1357L17.6873 25.7561L17.0037 26.3421L17.3291 26.7217L17.6545 27.1013L18.3381 26.5154L18.0127 26.1357ZM17.3291 26.7217L17.7307 26.4238L15.7268 23.7226L15.3252 24.0205L14.9236 24.3184L16.9275 27.0196L17.3291 26.7217ZM15.3252 24.0205L14.9236 23.7226L12.9197 26.4238L13.3213 26.7217L13.7229 27.0196L15.7268 24.3184L15.3252 24.0205ZM13.3213 26.7217L13.6467 26.3421L12.9631 25.7561L12.6377 26.1357L12.3123 26.5154L12.9959 27.1013L13.3213 26.7217ZM12.6377 26.1357L12.9579 26.5198L15.5877 24.3274L15.2676 23.9434L14.9474 23.5593L12.3175 25.7517L12.6377 26.1357ZM15.2676 23.9434L15.6689 23.6451L15.4824 23.3941L15.0811 23.6924L14.6797 23.9906L14.8663 24.2416L15.2676 23.9434ZM15.0811 23.6924L14.7613 24.0767L15.0054 24.2799L15.3252 23.8955L15.645 23.5111L15.4008 23.308L15.0811 23.6924ZM15.3252 23.8955L15.645 24.2799L15.8891 24.0767L15.5693 23.6924L15.2495 23.308L15.0054 23.5111L15.3252 23.8955ZM15.5693 23.6924L15.1688 23.3931L14.9813 23.6441L15.3818 23.9434L15.7824 24.2426L15.9699 23.9916L15.5693 23.6924ZM10.0967 19.7861L9.96621 20.2688C12.6911 21.0054 14.1546 22.9711 14.5271 23.8022L14.9834 23.5977L15.4397 23.3931C14.9652 22.3347 13.2875 20.1307 10.2272 19.3035L10.0967 19.7861ZM14.9834 23.5977L15.0784 23.1068C15.0344 23.0983 14.9923 23.0883 14.9321 23.0747L14.8223 23.5625L14.7124 24.0503C14.7592 24.0608 14.8248 24.0762 14.8884 24.0885L14.9834 23.5977ZM14.8223 23.5625L14.5209 23.1635C13.6278 23.8382 12.4694 24.2313 11.3944 24.3857C10.8598 24.4624 10.3581 24.4783 9.93521 24.4447C9.50353 24.4104 9.1892 24.3274 9.00612 24.2327L8.77637 24.6768L8.54661 25.1208C8.8965 25.3019 9.35986 25.4021 9.85607 25.4415C10.3611 25.4816 10.9375 25.4615 11.5365 25.3755C12.7289 25.2043 14.0605 24.7645 15.1236 23.9615L14.8223 23.5625ZM8.77637 24.6768L9.05216 25.0938C10.9979 23.8071 13.0077 23.7193 14.151 23.8873L14.2236 23.3926L14.2963 22.8979C12.9677 22.7027 10.6959 22.808 8.50058 24.2597L8.77637 24.6768ZM14.2236 23.3926L14.3845 22.9192C13.4121 22.5887 12.505 21.991 11.8098 21.3477C11.0974 20.6884 10.6774 20.0471 10.5817 19.6647L10.0967 19.7861L9.61164 19.9075C9.77837 20.5737 10.3707 21.3785 11.1306 22.0816C11.9077 22.8008 12.9329 23.482 14.0627 23.866L14.2236 23.3926ZM20.5537 19.7861L20.0687 19.6648C19.973 20.0471 19.5529 20.6884 18.8403 21.3477C18.1448 21.9911 17.2375 22.5888 16.265 22.9192L16.4258 23.3926L16.5866 23.866C17.7166 23.4821 18.742 22.8009 19.5194 22.0818C20.2794 21.3786 20.872 20.5738 21.0388 19.9075L20.5537 19.7861ZM16.4258 23.3926L16.4985 23.8873C17.6417 23.7192 19.6521 23.8069 21.5982 25.0938L21.874 24.6768L22.1498 24.2597C19.9541 22.8077 17.6815 22.7025 16.353 22.8979L16.4258 23.3926ZM21.874 24.6768L21.6442 24.2327C21.4611 24.3275 21.1467 24.4105 20.7148 24.4449C20.2918 24.4785 19.7898 24.4628 19.255 24.386C18.1795 24.2318 17.0207 23.8386 16.1277 23.1636L15.8262 23.5625L15.5247 23.9614C16.5879 24.765 17.9201 25.2048 19.113 25.3759C19.7123 25.4619 20.2889 25.4819 20.7941 25.4417C21.2904 25.4023 21.7539 25.3019 22.1038 25.1208L21.874 24.6768ZM15.8262 23.5625L15.7164 23.0747C15.6515 23.0893 15.6154 23.0984 15.572 23.1068L15.667 23.5977L15.762 24.0885C15.825 24.0763 15.8949 24.0595 15.9359 24.0503L15.8262 23.5625ZM15.667 23.5977L16.1232 23.8022C16.4958 22.9711 17.9592 21.0053 20.6842 20.2688L20.5537 19.7861L20.4233 19.3035C17.3627 20.1306 15.6852 22.3347 15.2107 23.3931L15.667 23.5977ZM18.6729 22.6729L18.9024 23.1171C19.1555 22.9863 19.7839 22.784 20.5515 22.7426C21.3126 22.7016 22.1524 22.8219 22.8688 23.2697L23.1338 22.8457L23.3988 22.4217C22.4531 21.8306 21.3885 21.696 20.4977 21.744C19.6134 21.7917 18.8424 22.0224 18.4433 22.2287L18.6729 22.6729ZM23.1338 22.8457L22.83 22.4486C22.7441 22.5143 22.5595 22.5989 22.2616 22.6636C21.9745 22.726 21.6211 22.7614 21.2339 22.7581C20.4538 22.7515 19.5916 22.5884 18.9042 22.2296L18.6729 22.6729L18.4415 23.1161C19.305 23.5667 20.3329 23.7505 21.2254 23.7581C21.6745 23.7619 22.103 23.7213 22.4738 23.6408C22.8338 23.5626 23.1831 23.4375 23.4376 23.2428L23.1338 22.8457ZM6.83105 22.8105L7.09606 23.2345C7.87147 22.7499 8.77897 22.6208 9.59883 22.6654C10.4252 22.7103 11.1035 22.9283 11.3798 23.0711L11.6094 22.627L11.839 22.1828C11.4169 21.9646 10.5962 21.7181 9.65308 21.6668C8.70346 21.6152 7.57099 21.7584 6.56605 22.3866L6.83105 22.8105ZM11.6094 22.627L11.3781 22.1837C10.6355 22.5711 9.706 22.7462 8.8663 22.753C8.44931 22.7564 8.06815 22.7181 7.75765 22.6506C7.43634 22.5807 7.23288 22.4885 7.1351 22.4136L6.83105 22.8105L6.52701 23.2075C6.79345 23.4116 7.16172 23.5443 7.54504 23.6277C7.93918 23.7135 8.39558 23.7569 8.87444 23.753C9.82646 23.7452 10.9219 23.5496 11.8407 23.0702L11.6094 22.627ZM2.66797 20.6152L2.8556 21.0787C3.22486 20.9292 4.14109 20.7049 5.23436 20.7606C6.31885 20.8159 7.53761 21.1441 8.56692 22.0509L8.89746 21.6758L9.228 21.3006C7.98455 20.2051 6.52773 19.8252 5.28525 19.7619C4.05155 19.699 2.98942 19.9457 2.48034 20.1518L2.66797 20.6152ZM8.89746 21.6758L8.62753 21.2549C8.63514 21.25 8.58467 21.278 8.42693 21.3096C8.28522 21.338 8.097 21.3618 7.86983 21.3767C7.41638 21.4063 6.83863 21.3983 6.22564 21.3348C4.96976 21.2048 3.69686 20.8553 2.99848 20.24L2.66797 20.6152L2.33746 20.9904C3.28174 21.8223 4.82415 22.1951 6.12263 22.3295C6.78682 22.3983 7.42102 22.4081 7.93507 22.3745C8.19166 22.3578 8.42608 22.3297 8.62352 22.2901C8.80491 22.2537 9.01006 22.1976 9.16739 22.0967L8.89746 21.6758ZM21.7422 21.6729L22.0727 22.048C23.1022 21.141 24.3212 20.8128 25.4057 20.7576C26.499 20.7019 27.4151 20.9263 27.7839 21.0757L27.9717 20.6123L28.1594 20.1489C27.6506 19.9428 26.5886 19.696 25.3548 19.7589C24.1123 19.8221 22.6553 20.202 21.4117 21.2977L21.7422 21.6729ZM27.9717 20.6123L27.6411 20.2371C26.943 20.8522 25.6705 21.2017 24.4148 21.3317C23.8019 21.3952 23.2241 21.4032 22.7705 21.3736C22.5433 21.3587 22.3549 21.335 22.2131 21.3066C22.0552 21.275 22.0043 21.247 22.0115 21.2516L21.7422 21.6729L21.4729 22.0941C21.6302 22.1947 21.8352 22.2507 22.0167 22.2871C22.2142 22.3266 22.4487 22.3547 22.7054 22.3715C23.2195 22.405 23.8537 22.3952 24.5178 22.3264C25.8161 22.1919 27.3582 21.8192 28.3022 20.9875L27.9717 20.6123ZM6.56445 16.3613L6.34084 16.8085C6.69681 16.9865 7.47101 17.5257 8.15223 18.3831C8.82796 19.2335 9.3877 20.3652 9.3877 21.7373H9.8877H10.3877C10.3877 20.0797 9.7093 18.7352 8.93516 17.7609C8.1665 16.7936 7.27907 16.1596 6.78807 15.9141L6.56445 16.3613ZM9.8877 21.7373L10.0251 21.2565C10.0338 21.259 9.9794 21.2396 9.85135 21.1421C9.73632 21.0546 9.59399 20.9291 9.43262 20.7684C9.11051 20.4477 8.73445 20.0088 8.37673 19.5068C7.64384 18.4783 7.06445 17.292 7.06445 16.3613H6.56445H6.06445C6.06445 17.6198 6.80464 19.0238 7.56234 20.0871C7.94992 20.631 8.36192 21.1135 8.72705 21.477C8.9093 21.6585 9.08539 21.8158 9.24563 21.9378C9.39285 22.0499 9.57061 22.1667 9.75033 22.2181L9.8877 21.7373ZM24.0703 16.3613H23.5703C23.5703 17.292 22.9911 18.4783 22.2585 19.5068C21.9009 20.0088 21.525 20.4477 21.2029 20.7684C21.0416 20.9291 20.8993 21.0546 20.7843 21.1421C20.6563 21.2396 20.602 21.259 20.6106 21.2566L20.748 21.7373L20.8855 22.2181C21.0652 22.1667 21.2429 22.0498 21.3901 21.9378C21.5504 21.8158 21.7264 21.6584 21.9086 21.4769C22.2737 21.1134 22.6855 20.6309 23.073 20.087C23.8304 19.0237 24.5703 17.6198 24.5703 16.3613H24.0703ZM20.748 21.7373H21.248C21.248 20.3652 21.8075 19.2335 22.483 18.3831C23.164 17.5258 23.9379 16.9866 24.294 16.8085L24.0703 16.3613L23.8467 15.9141C23.3556 16.1597 22.4684 16.7938 21.7 17.7611C20.9261 18.7354 20.248 20.0799 20.248 21.7373H20.748ZM2.66797 17.0967L2.67288 17.5967C3.07116 17.5927 4.00577 17.7195 5.00263 18.1716C5.99148 18.6201 7.00539 19.3717 7.63124 20.5924L8.07617 20.3643L8.5211 20.1361C7.76506 18.6615 6.54859 17.7747 5.41567 17.2609C4.29076 16.7507 3.21221 16.5913 2.66305 16.5967L2.66797 17.0967ZM8.07617 20.3643L7.97927 19.8737C7.988 19.872 7.93068 19.8795 7.77231 19.8512C7.63002 19.8257 7.44613 19.7789 7.2293 19.7096C6.79648 19.5712 6.26183 19.3522 5.71471 19.0688C4.59378 18.488 3.53745 17.6968 3.11292 16.8686L2.66797 17.0967L2.22302 17.3248C2.79706 18.4446 4.09569 19.3562 5.25466 19.9566C5.84749 20.2638 6.43401 20.5051 6.92467 20.6621C7.16957 20.7404 7.398 20.8001 7.59622 20.8355C7.77837 20.8681 7.98977 20.891 8.17307 20.8548L8.07617 20.3643ZM27.9717 17.0967L27.5267 16.8686C27.1022 17.6968 26.0456 18.488 24.9243 19.0689C24.3771 19.3523 23.8423 19.5713 23.4094 19.7097C23.1925 19.779 23.0086 19.8258 22.8664 19.8512C22.708 19.8795 22.6507 19.872 22.6596 19.8738L22.5625 20.3643L22.4654 20.8547C22.6488 20.891 22.8602 20.8682 23.0423 20.8356C23.2406 20.8002 23.469 20.7405 23.714 20.6622C24.2047 20.5053 24.7913 20.264 25.3843 19.9568C26.5435 19.3563 27.8425 18.4447 28.4166 17.3248L27.9717 17.0967ZM22.5625 20.3643L23.0074 20.5924C23.6334 19.3715 24.6476 18.6198 25.6368 18.1714C26.6339 17.7193 27.5687 17.5927 27.9667 17.5967L27.9717 17.0967L27.9767 16.5967C27.4278 16.5912 26.349 16.7505 25.2238 17.2606C24.0906 17.7743 22.8737 18.6612 22.1176 20.1361L22.5625 20.3643ZM4.82617 13.333L4.43919 13.6496C5.04842 14.3943 5.60202 15.6958 4.87658 17.3608L5.33496 17.5605L5.79334 17.7603C6.70345 15.6713 5.99894 13.9768 5.21316 13.0164L4.82617 13.333ZM5.33496 17.5605L5.65318 17.1749C5.68631 17.2022 5.67195 17.2024 5.6238 17.1119C5.58356 17.0362 5.53593 16.9282 5.4855 16.7901C5.38497 16.5147 5.28456 16.1506 5.21174 15.7509C5.06121 14.9245 5.051 14.0688 5.28456 13.5327L4.82617 13.333L4.36779 13.1333C4.0105 13.9534 4.06913 15.0583 4.22793 15.9301C4.30978 16.3795 4.42416 16.7989 4.54614 17.133C4.60695 17.2996 4.67251 17.4528 4.74084 17.5813C4.80125 17.695 4.89084 17.8423 5.01675 17.9462L5.33496 17.5605ZM25.918 13.5537L25.4596 13.7534C25.6734 14.2443 25.6654 15.0346 25.525 15.8043C25.4572 16.1757 25.3639 16.5136 25.2707 16.7686C25.224 16.8965 25.1801 16.9958 25.1435 17.0646C25.0989 17.1484 25.0881 17.1431 25.1244 17.1131L25.4424 17.499L25.7603 17.8849C25.8833 17.7836 25.9695 17.6411 26.0263 17.5344C26.091 17.4127 26.1528 17.2682 26.21 17.1118C26.3246 16.798 26.4319 16.4048 26.5087 15.9838C26.6574 15.1687 26.714 14.129 26.3764 13.354L25.918 13.5537ZM25.4424 17.499L25.9008 17.2993C25.2301 15.7597 25.7422 14.5582 26.305 13.8703L25.918 13.5537L25.531 13.2371C24.7919 14.1405 24.1286 15.735 24.984 17.6987L25.4424 17.499ZM0.699219 13.498L0.621503 13.992C1.85595 14.1862 3.5184 14.9698 4.25361 17.2023L4.72852 17.0459L5.20343 16.8895C4.32357 14.2178 2.28664 13.2417 0.776935 13.0041L0.699219 13.498ZM4.72852 17.0459L4.70861 16.5463C4.71216 16.5462 4.69921 16.5468 4.66506 16.5416C4.63275 16.5368 4.58969 16.5281 4.53585 16.514C4.42794 16.4858 4.29044 16.4398 4.13067 16.3737C3.81124 16.2415 3.42281 16.0375 3.03009 15.7622C2.238 15.207 1.47878 14.3986 1.1797 13.3597L0.699219 13.498L0.218734 13.6364C0.6034 14.9725 1.55593 15.9501 2.4561 16.5811C2.90951 16.8989 3.36234 17.138 3.74837 17.2977C3.94132 17.3776 4.1226 17.4396 4.28314 17.4816C4.4347 17.5212 4.59965 17.5514 4.74842 17.5455L4.72852 17.0459ZM29.9287 13.498L29.4482 13.3597C29.1492 14.3986 28.39 15.207 27.5979 15.7622C27.2052 16.0375 26.8168 16.2415 26.4973 16.3737C26.3375 16.4398 26.2 16.4858 26.0921 16.514C26.0383 16.5281 25.9952 16.5368 25.9629 16.5416C25.9287 16.5468 25.9157 16.5462 25.9193 16.5463L25.8994 17.0459L25.8796 17.5455C26.0283 17.5514 26.1933 17.5211 26.3448 17.4815C26.5054 17.4396 26.6867 17.3775 26.8796 17.2977C27.2657 17.138 27.7185 16.8989 28.1719 16.5811C29.0721 15.9501 30.0246 14.9725 30.4092 13.6364L29.9287 13.498ZM25.8994 17.0459L26.3743 17.2023C27.1096 14.9698 28.772 14.1862 30.0064 13.992L29.9287 13.498L29.851 13.0041C28.3413 13.2416 26.3044 14.2178 25.4245 16.8895L25.8994 17.0459ZM1.48926 10.123L1.26357 10.5692C2.37859 11.1332 3.71956 12.3897 3.73341 14.7402L4.2334 14.7373L4.73339 14.7344C4.71682 11.9215 3.0788 10.3668 1.71495 9.67688L1.48926 10.123ZM4.2334 14.7373L4.3681 14.2558C4.37147 14.2567 4.35892 14.2533 4.32798 14.2379C4.2987 14.2234 4.26039 14.2018 4.21347 14.1719C4.11942 14.1119 4.00272 14.0258 3.871 13.9138C3.60764 13.6899 3.30073 13.3764 3.01163 12.9937C2.42854 12.222 1.95451 11.2194 1.989 10.139L1.48926 10.123L0.989512 10.1071C0.945149 11.4967 1.55111 12.7195 2.21377 13.5966C2.54754 14.0383 2.90494 14.405 3.22321 14.6756C3.38229 14.8109 3.53572 14.9257 3.67561 15.0149C3.80769 15.0992 3.95533 15.1787 4.0987 15.2188L4.2334 14.7373ZM29.1494 10.123L28.6497 10.139C28.6842 11.2195 28.2101 12.2222 27.627 12.9939C27.3379 13.3765 27.0309 13.6901 26.7676 13.914C26.6359 14.0259 26.5192 14.112 26.4252 14.172C26.3783 14.2019 26.34 14.2234 26.3107 14.238C26.2798 14.2533 26.2673 14.2567 26.2707 14.2557L26.4053 14.7373L26.5398 15.2189C26.6832 15.1788 26.8309 15.0993 26.963 15.0151C27.1029 14.9258 27.2563 14.8111 27.4154 14.6758C27.7336 14.4052 28.091 14.0385 28.4248 13.5968C29.0875 12.7197 29.6935 11.4968 29.6492 10.1071L29.1494 10.123ZM26.4053 14.7373L26.9053 14.7402C26.9191 12.3898 28.2601 11.1333 29.3751 10.5692L29.1494 10.123L28.9237 9.67689C27.5599 10.3668 25.9219 11.9217 25.9053 14.7344L26.4053 14.7373ZM6.04297 8.15234L5.55465 8.25977C5.82312 9.4802 5.69832 11.3133 3.88653 12.8109L4.20508 13.1963L4.52363 13.5817C6.69175 11.7896 6.85968 9.53767 6.53129 8.04492L6.04297 8.15234ZM4.20508 13.1963L4.66342 12.9965C4.66475 12.9995 4.65943 12.9875 4.65176 12.9537C4.64451 12.9218 4.63697 12.8784 4.63048 12.8231C4.61748 12.7122 4.61035 12.5673 4.6138 12.3943C4.6207 12.0487 4.66944 11.6126 4.78293 11.1467C5.01184 10.2071 5.48841 9.20603 6.34674 8.54948L6.04297 8.15234L5.73919 7.7552C4.63521 8.59965 4.07148 9.84219 3.81135 10.9101C3.68032 11.4479 3.62234 11.9567 3.614 12.3744C3.60984 12.5832 3.61796 12.7746 3.63728 12.9395C3.65553 13.0952 3.68729 13.2597 3.74674 13.3961L4.20508 13.1963ZM24.6025 8.15234L24.2988 8.54951C25.1573 9.20604 25.6341 10.2071 25.8632 11.1468C25.9768 11.6127 26.0256 12.0487 26.0326 12.3944C26.036 12.5673 26.0289 12.7122 26.016 12.8231C26.0095 12.8784 26.0019 12.9218 25.9947 12.9538C25.987 12.9875 25.9817 12.9996 25.983 12.9965L26.4414 13.1963L26.8998 13.3961C26.9592 13.2597 26.991 13.0951 27.0092 12.9394C27.0285 12.7745 27.0366 12.583 27.0324 12.3742C27.0239 11.9565 26.9659 11.4478 26.8347 10.9099C26.5744 9.84202 26.0104 8.59954 24.9063 7.75518L24.6025 8.15234ZM26.4414 13.1963L26.76 12.8109C24.9481 11.3133 24.8225 9.47999 25.0909 8.25976L24.6025 8.15234L24.1142 8.04493C23.7858 9.53788 23.9549 11.7897 26.1229 13.5817L26.4414 13.1963ZM1.58301 6.39355L1.27484 6.7873C2.30185 7.5911 3.48576 8.9168 3.05 11.185L3.54102 11.2793L4.03204 11.3736C4.57036 8.57163 3.05165 6.90808 1.89118 5.99981L1.58301 6.39355ZM3.54102 11.2793L3.76666 10.8331C3.71825 10.8086 3.54445 10.6783 3.30129 10.406C3.07186 10.1491 2.81375 9.80277 2.5871 9.39418C2.13022 8.57054 1.82892 7.54711 2.0701 6.50644L1.58301 6.39355L1.09592 6.28067C0.779097 7.64771 1.18627 8.93035 1.71263 9.87925C1.9776 10.3569 2.27981 10.7635 2.55542 11.0721C2.81729 11.3653 3.09326 11.6132 3.31537 11.7255L3.54102 11.2793ZM29.0518 6.39355L28.5647 6.50644C28.8058 7.54688 28.5048 8.57012 28.0483 9.39371C27.8218 9.80228 27.5638 10.1486 27.3344 10.4056C27.0914 10.6779 26.9175 10.8086 26.8687 10.8333L27.0947 11.2793L27.3208 11.7253C27.5428 11.6127 27.8186 11.3649 28.0805 11.0715C28.356 10.7628 28.6581 10.3562 28.9229 9.87855C29.4489 8.92968 29.8556 7.64732 29.5388 6.28067L29.0518 6.39355ZM27.0947 11.2793L27.5857 11.185C27.1499 8.91669 28.3331 7.591 29.3599 6.78729L29.0518 6.39355L28.7436 5.99982C27.583 6.90824 26.0654 8.57181 26.6037 11.3736L27.0947 11.2793ZM26.54 4.91406L26.1466 5.22264C26.6498 5.86416 26.7761 6.67441 26.7254 7.40714C26.7003 7.76982 26.6326 8.09881 26.5559 8.35441C26.5175 8.48211 26.4783 8.58728 26.4433 8.66619C26.4054 8.75176 26.3819 8.78523 26.382 8.78514L26.7754 9.09375L27.1688 9.40236C27.3033 9.23092 27.423 8.94406 27.5137 8.64182C27.6103 8.31981 27.6925 7.9176 27.723 7.47611C27.7836 6.6005 27.6434 5.51061 26.9335 4.60549L26.54 4.91406ZM26.7754 9.09375L27.2099 8.84637C26.4082 7.4381 26.7377 5.98566 27.0185 5.05908L26.54 4.91406L26.0615 4.76905C25.7684 5.73638 25.3205 7.54879 26.3409 9.34113L26.7754 9.09375ZM4.11035 4.89258L3.63184 5.03759C3.91365 5.96747 4.24383 7.42593 3.43852 8.84052L3.87305 9.08789L4.30757 9.33526C5.33134 7.53692 4.88322 5.71886 4.58886 4.74756L4.11035 4.89258ZM3.87305 9.08789L4.26688 8.77984C4.26913 8.78271 4.26302 8.77514 4.24997 8.75169C4.23765 8.72955 4.22229 8.69895 4.20477 8.65933C4.16965 8.57992 4.13022 8.47418 4.09179 8.34589C4.01487 8.08911 3.94696 7.75875 3.92193 7.39462C3.87138 6.65901 3.99844 5.84544 4.50377 5.20115L4.11035 4.89258L3.71693 4.584C3.00499 5.4917 2.86391 6.58468 2.92429 7.46318C2.95473 7.9061 3.03704 8.30968 3.13385 8.63286C3.22479 8.93642 3.34471 9.22398 3.47921 9.39594L3.87305 9.08789ZM8.77637 4.63672L8.32761 4.41623C7.78836 5.51376 6.82513 7.17554 4.82575 7.79904L4.97461 8.27637L5.12346 8.7537C7.54478 7.99861 8.66713 5.9929 9.22513 4.85721L8.77637 4.63672ZM4.97461 8.27637L5.47277 8.31927C5.47743 8.26515 5.53351 8.05525 5.69538 7.72808C5.84812 7.41937 6.07311 7.05071 6.36758 6.68799C6.96118 5.95682 7.79814 5.29542 8.85346 5.13074L8.77637 4.63672L8.69928 4.1427C7.31299 4.35902 6.27509 5.21534 5.59122 6.0577C5.24696 6.48174 4.98256 6.91379 4.79908 7.28463C4.62475 7.637 4.49781 7.98548 4.47645 8.23347L4.97461 8.27637ZM21.873 4.63672L21.796 5.13075C22.8515 5.29534 23.6887 5.95676 24.2825 6.68797C24.5771 7.05071 24.8021 7.4194 24.9549 7.72812C25.1169 8.05532 25.173 8.2652 25.1776 8.31925L25.6758 8.27637L26.1739 8.23349C26.1526 7.98544 26.0256 7.63691 25.8512 7.28454C25.6676 6.91368 25.4031 6.48162 25.0587 6.05757C24.3747 5.2152 23.3365 4.3589 21.9501 4.14269L21.873 4.63672ZM25.6758 8.27637L25.8246 7.79903C23.825 7.17553 22.861 5.51364 22.3218 4.41623L21.873 4.63672L21.4243 4.8572C21.9824 5.99306 23.1055 7.99867 25.5269 8.7537L25.6758 8.27637ZM6.03613 1.12207L5.60664 1.37807C5.85348 1.7922 6.01163 2.55228 5.91543 3.46224C5.82075 4.35781 5.48458 5.34032 4.81751 6.1853L5.20996 6.49512L5.60241 6.80493C6.40119 5.79311 6.798 4.62578 6.90989 3.56737C7.02026 2.52334 6.85857 1.5253 6.46562 0.866068L6.03613 1.12207ZM5.20996 6.49512L5.61871 6.20715C5.61895 6.20749 5.59224 6.16348 5.55508 6.0467C5.52097 5.9395 5.48612 5.79683 5.45633 5.62371C5.39678 5.27767 5.36123 4.83235 5.38334 4.34438C5.42798 3.35937 5.70359 2.26621 6.41338 1.45022L6.03613 1.12207L5.65888 0.793921C4.74694 1.84232 4.43474 3.18769 4.38437 4.29911C4.35898 4.85935 4.39912 5.37671 4.47082 5.79331C4.50665 6.00151 4.55132 6.19015 4.60215 6.34991C4.64994 6.50011 4.71361 6.65875 4.80122 6.78309L5.20996 6.49512ZM24.6104 1.12207L24.2331 1.45022C24.9429 2.26619 25.2185 3.35932 25.2631 4.34433C25.2852 4.83229 25.2497 5.27762 25.1901 5.62367C25.1603 5.79679 25.1255 5.93947 25.0914 6.04669C25.0542 6.16347 25.0275 6.20751 25.0277 6.20719L25.4365 6.49512L25.8453 6.78304C25.9329 6.6587 25.9965 6.50007 26.0443 6.34986C26.0952 6.19009 26.1398 6.00145 26.1757 5.79325C26.2473 5.37665 26.2875 4.85928 26.2621 4.29904C26.2117 3.18764 25.8995 1.8423 24.9876 0.793925L24.6104 1.12207ZM25.4365 6.49512L25.829 6.1853C25.1619 5.34031 24.8257 4.3578 24.731 3.46222C24.6348 2.55227 24.793 1.79219 25.0398 1.37808L24.6104 1.12207L24.1809 0.866059C23.7879 1.52529 23.6262 2.52332 23.7366 3.56736C23.8485 4.62577 24.2453 5.7931 25.0441 6.80493L25.4365 6.49512ZM9.50293 0.72168L9.00401 0.754485C9.03564 1.23551 8.83095 1.98441 8.33155 2.75119C7.84004 3.50584 7.09389 4.22814 6.11554 4.67746L6.32422 5.13184L6.5329 5.58621C7.70443 5.04816 8.58862 4.18881 9.16949 3.29694C9.74247 2.4172 10.0522 1.45471 10.0019 0.688874L9.50293 0.72168ZM6.32422 5.13184L6.81926 5.06157C6.81928 5.06174 6.81556 5.01018 6.83559 4.88923C6.85398 4.77815 6.88785 4.63517 6.94004 4.46739C7.04438 4.13203 7.21521 3.71921 7.45677 3.29465C7.94438 2.43764 8.68676 1.58944 9.68973 1.18547L9.50293 0.72168L9.31612 0.257887C8.02742 0.776946 7.13777 1.83316 6.5876 2.80013C6.31027 3.28757 6.11079 3.76663 5.98519 4.17032C5.92242 4.37207 5.87642 4.56042 5.84902 4.72586C5.82326 4.88143 5.80782 5.0516 5.82918 5.2021L6.32422 5.13184ZM21.1426 0.72168L20.9558 1.18549C21.9589 1.58943 22.7014 2.43767 23.1889 3.2947C23.4305 3.71927 23.6013 4.1321 23.7056 4.46745C23.7577 4.63522 23.7916 4.77818 23.81 4.88924C23.83 5.01018 23.8262 5.06166 23.8263 5.06142L24.3213 5.13184L24.8163 5.20226C24.8377 5.05173 24.8223 4.88154 24.7966 4.72599C24.7692 4.56055 24.7232 4.37221 24.6604 4.17046C24.5349 3.76676 24.3354 3.28768 24.0581 2.80022C23.508 1.83319 22.6183 0.776896 21.3293 0.257871L21.1426 0.72168ZM24.3213 5.13184L24.53 4.67749C23.5518 4.2281 22.8057 3.50576 22.3141 2.75109C21.8146 1.98428 21.6099 1.23542 21.6415 0.754485L21.1426 0.72168L20.6437 0.688874C20.5933 1.45469 20.9032 2.41717 21.4762 3.29687C22.0571 4.18871 22.9412 5.04808 24.1126 5.58618L24.3213 5.13184Z" fill="#00F7A5" mask="url(#path-1-outside-1_30944_9182)"></path><path d="M14.9561 12.1558L17.3418 12.8999L17.4229 12.9253L17.4717 12.9956L19.0029 15.1812L19.0078 15.189L20.6045 17.6509L20.7266 17.8384L20.5537 17.98L19.3398 18.9751L19.293 19.0132L19.2334 19.0259L15.6357 19.7817L15.585 19.7915L15.5352 19.7817L10.9609 18.8735L10.8223 18.8462L10.7744 18.7134L10.2793 17.3423L10.2441 17.2446L10.2891 17.1509L10.6992 16.2817L10.7217 16.2339L10.7617 16.1987L12.7227 14.5073L14.6924 12.23L14.7998 12.1069L14.9561 12.1558ZM11.0645 10.8989L12.6973 13.23L12.8115 13.394L12.6768 13.5425L11.0439 15.3296L10.873 15.5171L10.6885 15.3442L8.78906 13.5718L8.73242 13.5181L8.71582 13.4419L8.3418 11.7153L8.29102 11.4829L8.52051 11.4204L10.7939 10.8013L10.9629 10.7554L11.0645 10.8989ZM20.3799 10.3228L21.8125 10.9985L21.9082 11.0435L21.9424 11.1421L22.3818 12.4097L22.416 12.5103L22.3682 12.605L20.9824 15.3276L20.9082 15.4751L20.7432 15.4634L19.9404 15.4106L19.8232 15.4028L19.7549 15.3081L18.2803 13.2856L18.1758 13.1421L18.2764 12.9966L20.0674 10.4067L20.1885 10.2319L20.3799 10.3228ZM18.3174 6.72119L19.4941 8.73486L19.5449 8.82178L19.5215 8.92041L18.9834 11.1108L18.9609 11.2026L18.8838 11.2563L18.0615 11.8325L17.9658 11.8999L17.8525 11.8696L16.5566 11.519L16.4414 11.4878L16.3936 11.3794L15.5791 9.55127L15.5459 9.4751L15.5635 9.39404L16.0918 7.06396L16.1299 6.89795L16.2979 6.87256L18.0635 6.6001L18.2314 6.57471L18.3174 6.72119ZM12.0547 7.09033L14.2695 7.44775L14.416 7.47217L14.4658 7.61182L15.0781 9.35303L15.0918 9.39111L15.0928 9.43213L15.1074 10.6089L15.1084 10.6929L15.0586 10.7603L14.3018 11.7827L14.2188 11.894L14.0801 11.8833L12.4551 11.7495L12.3164 11.7378L12.2529 11.6138L11.1641 9.48193L11.1182 9.39111L11.1484 9.29443L11.7754 7.26318L11.8398 7.05518L12.0547 7.09033ZM9.68555 8.72803L9.89062 9.43213L10.1631 10.1948L10.2041 10.311L10.1377 10.4146L10.0098 10.6108L9.96289 10.6841L9.87988 10.7114L9.00195 11.0054L8.8252 11.0649L8.71777 10.9116L8.4541 10.5356L8.37598 10.4233L8.42773 10.2974L8.96289 8.98682L8.97949 8.94678L9.00781 8.91553L9.25879 8.63232L9.55957 8.29346L9.68555 8.72803ZM21.2725 8.01123L21.6348 8.17529L21.6787 8.19482L21.7119 8.229L22.3252 8.86377L22.4102 8.95264L22.3926 9.07373L22.2646 9.94873L22.2168 10.2729L21.917 10.1421L20.8779 9.68799L20.7041 9.61279L20.7305 9.42432L20.8086 8.86768L20.8096 8.86084H20.8105L20.9229 8.19678L20.9775 7.87744L21.2725 8.01123ZM13.5518 4.28564C13.5567 4.29937 13.5585 4.31599 13.5625 4.3335H13.5645C13.5896 4.42765 13.6792 4.76243 13.7627 5.104C13.8044 5.27459 13.8451 5.44896 13.876 5.59619C13.905 5.73439 13.9305 5.87356 13.9326 5.95947L13.9336 5.99854L13.9229 6.03564L13.7949 6.47217L13.7451 6.64502L13.5654 6.65186L12.1611 6.70947L11.8096 6.72412L11.9121 6.38721L12.1924 5.46729L12.2021 5.43408L12.2217 5.40479V5.40381C12.222 5.40328 12.223 5.40187 12.2236 5.40088C12.2249 5.39893 12.2272 5.39655 12.2295 5.39307C12.2344 5.38557 12.2409 5.37379 12.25 5.35986C12.2682 5.33206 12.295 5.29277 12.3271 5.24463C12.3916 5.14808 12.4804 5.0165 12.5771 4.87939C12.6735 4.7429 12.7791 4.59776 12.8779 4.47412C12.971 4.35774 13.0765 4.2371 13.168 4.16943L13.4375 3.96924L13.5518 4.28564ZM16.915 4.05127L18.084 5.71924L18.2012 5.88721L18.0596 6.03564L17.9521 6.14795L17.9072 6.19482L17.8457 6.21436L16.8477 6.5249L16.6348 6.59131L16.5449 6.38623L16.2988 5.82764L16.2803 5.78467L16.2783 5.73779L16.2334 4.71533L16.2314 4.65674L16.2549 4.60303L16.6611 3.68896L16.915 4.05127Z" stroke="#00F7A5" stroke-width="0.5" stroke-linecap="round"></path></svg>