<svg viewBox="0 0 46 42" fill="none" xmlns="http://www.w3.org/2000/svg" aria-hidden="true">
  <path d="M23.1895 34.3691L22.9489 34.1898L22.779 34.4177L22.9975 34.5997L23.1895 34.3691ZM25.0703 35.9355L24.8783 36.1661L24.8783 36.1661L25.0703 35.9355ZM26.6289 37.2334L26.8241 37.4612L27.0938 37.2301L26.8209 37.0029L26.6289 37.2334ZM25.7334 38.001L25.4924 38.1797L25.6842 38.4383L25.9286 38.2288L25.7334 38.001ZM24.5391 36.3906L24.78 36.2119L24.78 36.2118L24.5391 36.3906ZM23.1143 34.4707L23.3552 34.2919L23.1142 33.9672L22.8733 34.292L23.1143 34.4707ZM21.6904 36.3906L21.9314 36.5693L21.9314 36.5693L21.6904 36.3906ZM20.4961 38.001L20.3007 38.2286L20.5452 38.4384L20.7371 38.1797L20.4961 38.001ZM19.6016 37.2334L19.4095 37.0029L19.137 37.23L19.4062 37.4611L19.6016 37.2334ZM21.1592 35.9355L21.3512 36.166H21.3512L21.1592 35.9355ZM23.0391 34.3691L23.2311 34.5996L23.449 34.418L23.2799 34.1903L23.0391 34.3691ZM22.7939 34.0391L22.9859 33.8085L22.5531 34.2179L22.7939 34.0391ZM23.1143 34.3057L22.9223 34.5362L23.114 34.6957L23.3058 34.5365L23.1143 34.3057ZM23.4355 34.0391L23.6761 34.2184L23.244 33.8082L23.4355 34.0391ZM16.2793 28.9297L16.3576 28.6401L15.8642 28.5067L15.9883 29.0025L16.2793 28.9297ZM22.6699 33.9141L22.6129 34.2086L23.1799 34.3183L22.9437 33.7913L22.6699 33.9141ZM22.46 33.8682L22.5259 33.5755L22.3901 33.5449L22.279 33.6289L22.46 33.8682ZM14.5488 35.3252L14.3834 35.075L13.9571 35.3568L14.4109 35.5916L14.5488 35.3252ZM21.6797 33.6475L21.6358 33.9442L21.7761 33.3634L21.6797 33.6475ZM29.9541 28.9297L30.2451 29.0025L30.3692 28.5067L29.8758 28.6401L29.9541 28.9297ZM24.5527 33.6475L24.4564 33.3634L24.5966 33.9442L24.5527 33.6475ZM31.6846 35.3252L31.8224 35.5916L32.2763 35.3568L31.85 35.075L31.6846 35.3252ZM23.7734 33.8682L23.9544 33.6289L23.8433 33.5449L23.7075 33.5755L23.7734 33.8682ZM23.5635 33.9141L23.2897 33.7913L23.0535 34.3183L23.6205 34.2086L23.5635 33.9141ZM27.5 32.7061L27.3622 32.4396L26.8492 32.7048L27.3612 32.972L27.5 32.7061ZM33.335 32.9307L33.5173 33.1689L33.8611 32.9057L33.4939 32.6763L33.335 32.9307ZM12.0068 32.8848L11.8479 32.6303L11.4808 32.8597L11.8244 33.1229L12.0068 32.8848ZM18.2559 32.6445L18.3946 32.9105L18.9067 32.6433L18.3936 32.378L18.2559 32.6445ZM6.56152 30.0146L6.44888 29.7366L5.99895 29.9189L6.36322 30.2398L6.56152 30.0146ZM14.709 31.4014L14.8708 31.654L15.2059 31.4393L14.9073 31.1763L14.709 31.4014ZM31.5166 31.3975L31.3183 31.1724L31.0198 31.4353L31.3547 31.65L31.5166 31.3975ZM39.6641 30.0107L39.8624 30.2359L40.2267 29.9149L39.7767 29.7327L39.6641 30.0107ZM11.6729 24.4512L11.807 24.1828L11.3729 23.9658V24.4512H11.6729ZM16.0186 31.4814L15.9361 31.7699L16.3186 31.8792V31.4814H16.0186ZM34.5537 24.4512H34.8537V23.9658L34.4196 24.1828L34.5537 24.4512ZM30.208 31.4814H29.908V31.8794L30.2906 31.7699L30.208 31.4814ZM6.56152 25.4131L6.55851 25.1131L6.07311 25.118L6.29456 25.5499L6.56152 25.4131ZM13.6357 29.6865L13.694 29.9808L14.0842 29.9036L13.9027 29.5497L13.6357 29.6865ZM39.6641 25.4131L39.931 25.5499L40.1525 25.1179L39.667 25.1131L39.6641 25.4131ZM32.5908 29.6865L32.3239 29.5497L32.1422 29.9039L32.5328 29.9809L32.5908 29.6865ZM9.38477 20.4922L9.61696 20.3022L9.30592 19.922L9.10973 20.3724L9.38477 20.4922ZM10.0498 26.0195L9.85886 26.2509L10.1659 26.5043L10.3248 26.1394L10.0498 26.0195ZM36.9707 20.7803L37.2457 20.6605L37.0496 20.2102L36.7385 20.5903L36.9707 20.7803ZM36.3496 25.9395L36.0746 26.0593L36.2335 26.4241L36.5405 26.1709L36.3496 25.9395ZM4 20.707L4.04662 20.4107L3.58144 20.3375L3.71171 20.79L4 20.707ZM9.26953 25.3467L9.28148 25.6464L9.67891 25.6306L9.55447 25.2528L9.26953 25.3467ZM42.2217 20.707L42.51 20.79L42.6403 20.3375L42.175 20.4107L42.2217 20.707ZM36.9531 25.3467L36.6682 25.2528L36.5436 25.6309L36.9414 25.6465L36.9531 25.3467ZM5.02832 16.293L5.16372 16.0253L4.74352 15.8127L4.72847 16.2834L5.02832 16.293ZM8.61719 22.3271L8.53619 22.616L8.91954 22.7235L8.91718 22.3254L8.61719 22.3271ZM41.1934 16.293L41.4932 16.2834L41.4782 15.8127L41.058 16.0253L41.1934 16.293ZM37.6045 22.3271L37.3045 22.3254L37.3021 22.7232L37.6853 22.6161L37.6045 22.3271ZM10.9766 13.7158L11.2696 13.6514L11.1684 13.1914L10.7943 13.4775L10.9766 13.7158ZM8.57324 20.3125L8.2984 20.4328L8.45781 20.7971L8.76436 20.5437L8.57324 20.3125ZM35.2529 13.7158L35.4352 13.4775L35.0611 13.1915L34.9599 13.6514L35.2529 13.7158ZM37.6562 20.3125L37.4651 20.5437L37.7717 20.7971L37.9311 20.4328L37.6562 20.3125ZM5.14551 11.416L5.3304 11.1798L4.95955 10.8895L4.85325 11.3483L5.14551 11.416ZM7.70605 17.8057L7.57068 18.0734L7.92559 18.2528L8.00066 17.8623L7.70605 17.8057ZM41.0723 11.416L41.3645 11.3483L41.2582 10.8895L40.8874 11.1798L41.0723 11.416ZM38.5117 17.8057L38.2171 17.8623L38.2922 18.2528L38.6471 18.0734L38.5117 17.8057ZM37.791 9.48145L38.0271 9.29629L37.6712 8.84258L37.5039 9.39443L37.791 9.48145ZM38.0996 14.9473L37.8389 15.0957L38.06 15.484L38.3357 15.1324L38.0996 14.9473ZM8.44238 9.45312L8.72949 9.36611L8.56223 8.81426L8.20634 9.26797L8.44238 9.45312ZM8.13281 14.9404L7.89678 15.1256L8.17249 15.477L8.39351 15.0889L8.13281 14.9404ZM14.5498 9.11914L14.8191 9.25144L15.0734 8.73387L14.5036 8.82272L14.5498 9.11914ZM9.57617 13.8789L9.27727 13.8532L9.23901 14.2983L9.66546 14.1653L9.57617 13.8789ZM31.6836 9.11914L31.7298 8.82272L31.16 8.73387L31.4143 9.25144L31.6836 9.11914ZM36.6572 13.8789L36.5679 14.1653L36.9944 14.2983L36.9561 13.8532L36.6572 13.8789ZM10.9619 4.52246L11.2196 4.36882L11.0075 4.01306L10.7356 4.32554L10.9619 4.52246ZM9.88184 11.5498L9.63669 11.7227L9.86831 12.0511L10.1173 11.7357L9.88184 11.5498ZM35.2598 4.52246L35.4861 4.32554L35.2142 4.01307L35.0021 4.36882L35.2598 4.52246ZM36.3398 11.5498L36.1044 11.7357L36.3534 12.0511L36.585 11.7227L36.3398 11.5498ZM15.499 4L15.7984 3.98032L15.7712 3.567L15.387 3.72171L15.499 4ZM11.3418 9.76758L11.0448 9.81012L11.1018 10.2079L11.467 10.0402L11.3418 9.76758ZM30.7266 4L30.8386 3.72171L30.4544 3.567L30.4272 3.98032L30.7266 4ZM34.8838 9.76758L34.7586 10.0402L35.1237 10.2079L35.1808 9.81014L34.8838 9.76758ZM22.9975 34.5997L24.8783 36.1661L25.2623 35.705L23.3814 34.1386L22.9975 34.5997ZM24.8783 36.1661L26.4369 37.4639L26.8209 37.0029L25.2623 35.705L24.8783 36.1661ZM26.4337 37.0056L25.5382 37.7732L25.9286 38.2288L26.8241 37.4612L26.4337 37.0056ZM25.9744 37.8223L24.78 36.2119L24.2981 36.5693L25.4924 38.1797L25.9744 37.8223ZM24.78 36.2118L23.3552 34.2919L22.8734 34.6495L24.2982 36.5694L24.78 36.2118ZM22.8733 34.292L21.4495 36.2119L21.9314 36.5693L23.3552 34.6494L22.8733 34.292ZM21.4495 36.2119L20.2551 37.8223L20.7371 38.1797L21.9314 36.5693L21.4495 36.2119ZM20.6915 37.7733L19.7969 37.0057L19.4062 37.4611L20.3007 38.2286L20.6915 37.7733ZM19.7936 37.4639L21.3512 36.166L20.9671 35.7051L19.4095 37.0029L19.7936 37.4639ZM21.3512 36.166L23.2311 34.5996L22.847 34.1387L20.9671 35.7051L21.3512 36.166ZM23.2799 34.1903L23.0348 33.8602L22.5531 34.2179L22.7982 34.548L23.2799 34.1903ZM22.602 34.2696L22.9223 34.5362L23.3062 34.0751L22.9859 33.8085L22.602 34.2696ZM23.3058 34.5365L23.6271 34.2699L23.244 33.8082L22.9227 34.0748L23.3058 34.5365ZM23.195 33.8597L22.9489 34.1898L23.43 34.5485L23.6761 34.2184L23.195 33.8597ZM16.201 29.2193C19.8835 30.2146 21.8729 32.8695 22.3962 34.0368L22.9437 33.7913C22.3593 32.4877 20.2414 29.6898 16.3576 28.6401L16.201 29.2193ZM22.7269 33.6195C22.6626 33.6071 22.6003 33.5923 22.5259 33.5755L22.394 34.1608C22.4594 34.1756 22.5368 34.1939 22.6129 34.2086L22.7269 33.6195ZM22.279 33.6289C21.0509 34.5574 19.4737 35.0881 18.0252 35.2957C17.3027 35.3993 16.6197 35.4213 16.0372 35.3749C15.4494 35.3281 14.9853 35.2133 14.6867 35.0588L14.4109 35.5916C14.8095 35.7979 15.3631 35.9231 15.9896 35.973C16.6213 36.0233 17.3492 35.9987 18.1104 35.8896C19.6293 35.6719 21.3105 35.1133 22.6409 34.1075L22.279 33.6289ZM14.7143 35.5754C17.3509 33.8321 20.076 33.7137 21.6358 33.9442L21.7236 33.3507C20.0526 33.1037 17.17 33.2324 14.3834 35.075L14.7143 35.5754ZM21.7761 33.3634C20.448 32.9127 19.2192 32.1012 18.2804 31.2327C17.3313 30.3546 16.7207 29.4576 16.5703 28.8569L15.9883 29.0025C16.1812 29.7736 16.8954 30.7687 17.8729 31.6731C18.8609 32.5871 20.1606 33.4487 21.5833 33.9315L21.7761 33.3634ZM29.6631 28.8568C29.5127 29.4576 28.9019 30.3547 27.9526 31.2328C27.0137 32.1014 25.7847 32.9128 24.4564 33.3634L24.6491 33.9316C26.072 33.4489 27.372 32.5873 28.3601 31.6733C29.3378 30.7688 30.0521 29.7737 30.2451 29.0025L29.6631 28.8568ZM24.5966 33.9442C26.1562 33.7135 28.8819 33.8317 31.5191 35.5754L31.85 35.075C29.0629 33.232 26.1797 33.1035 24.5088 33.3507L24.5966 33.9442ZM31.5467 35.0588C31.2481 35.2133 30.784 35.3281 30.1962 35.3749C29.6137 35.4213 28.9306 35.3992 28.2081 35.2957C26.7596 35.0881 25.1825 34.5574 23.9544 33.6289L23.5925 34.1075C24.9228 35.1133 26.6041 35.6719 28.123 35.8896C28.8841 35.9987 29.612 36.0233 30.2438 35.973C30.8703 35.9231 31.4238 35.7979 31.8224 35.5916L31.5467 35.0588ZM23.7075 33.5755C23.6331 33.5922 23.5708 33.6071 23.5065 33.6195L23.6205 34.2086C23.6966 34.1939 23.774 34.1756 23.8393 34.1608L23.7075 33.5755ZM23.8372 34.0368C24.3605 32.8695 26.35 30.2146 30.0324 29.2193L29.8758 28.6401C25.9921 29.6898 23.8741 32.4877 23.2897 33.7913L23.8372 34.0368ZM27.6378 32.9725C28.0202 32.7748 28.8927 32.4999 29.9381 32.4432C30.9796 32.3867 32.1577 32.5488 33.176 33.1851L33.4939 32.6763C32.338 31.9539 31.0249 31.7834 29.9056 31.8441C28.7902 31.9045 27.8322 32.1966 27.3622 32.4396L27.6378 32.9725ZM33.1526 32.6925C32.9807 32.824 32.681 32.9492 32.2694 33.0387C31.8642 33.1268 31.3754 33.1752 30.847 33.1708C29.7868 33.1621 28.6003 32.9418 27.6388 32.4401L27.3612 32.972C28.4284 33.5289 29.7144 33.7616 30.8421 33.7708C31.4076 33.7754 31.9416 33.724 32.3969 33.625C32.8458 33.5274 33.2443 33.3779 33.5173 33.1689L33.1526 32.6925ZM12.1658 33.1392C13.2613 32.4547 14.5278 32.2809 15.6459 32.3416C16.768 32.4025 17.7054 32.6976 18.1181 32.911L18.3936 32.378C17.8934 32.1194 16.8705 31.8072 15.6785 31.7425C14.4825 31.6775 13.081 31.8598 11.8479 32.6303L12.1658 33.1392ZM18.1171 32.3786C17.0835 32.9179 15.8092 33.1542 14.6714 33.1635C14.1042 33.1681 13.5791 33.1162 13.1434 33.0214C12.7013 32.9252 12.3769 32.7903 12.1893 32.6466L11.8244 33.1229C12.1132 33.3441 12.5365 33.5034 13.0159 33.6077C13.5017 33.7134 14.0719 33.7684 14.6763 33.7635C15.8815 33.7537 17.2554 33.505 18.3946 32.9105L18.1171 32.3786ZM6.67416 30.2927C7.20612 30.0772 8.45595 29.7758 9.93558 29.8511C11.4099 29.9261 13.0884 30.3735 14.5107 31.6265L14.9073 31.1763C13.3565 29.8101 11.5352 29.3317 9.96607 29.2518C8.40218 29.1723 7.06479 29.4871 6.44888 29.7366L6.67416 30.2927ZM14.5472 31.1488C14.4986 31.1799 14.3777 31.2264 14.163 31.2694C13.9579 31.3105 13.6953 31.3432 13.3877 31.3633C12.7732 31.4035 11.9976 31.3924 11.1777 31.3075C9.52013 31.136 7.7601 30.6707 6.75983 29.7895L6.36322 30.2398C7.51105 31.2509 9.43281 31.7301 11.1159 31.9044C11.9665 31.9924 12.776 32.0046 13.4269 31.962C13.7521 31.9408 14.0424 31.9055 14.2809 31.8577C14.5098 31.8118 14.7234 31.7484 14.8708 31.654L14.5472 31.1488ZM31.7149 31.6226C33.137 30.3697 34.8154 29.9223 36.2897 29.8472C37.7694 29.7719 39.0193 30.0733 39.5515 30.2888L39.7767 29.7327C39.1606 29.4832 37.8231 29.1684 36.2592 29.248C34.6901 29.3279 32.8689 29.8063 31.3183 31.1724L31.7149 31.6226ZM39.4658 29.7856C38.4654 30.6668 36.7052 31.1321 35.0475 31.3037C34.2277 31.3886 33.4521 31.3996 32.8375 31.3594C32.53 31.3393 32.2675 31.3067 32.0624 31.2656C31.8477 31.2225 31.727 31.176 31.6786 31.1449L31.3547 31.65C31.502 31.7445 31.7156 31.808 31.9445 31.8539C32.183 31.9017 32.4732 31.9369 32.7984 31.9582C33.4493 32.0007 34.2587 31.9886 35.1093 31.9005C36.7925 31.7263 38.7144 31.247 39.8624 30.2359L39.4658 29.7856ZM11.5387 24.7195C12.052 24.9762 13.1045 25.7148 14.0262 26.8749C14.9447 28.0308 15.7186 29.5861 15.7186 31.4814H16.3186C16.3186 29.4148 15.4735 27.7319 14.496 26.5016C13.5218 25.2755 12.4014 24.48 11.807 24.1828L11.5387 24.7195ZM16.101 31.193C16.0457 31.1772 15.9309 31.1173 15.7567 30.9847C15.5902 30.858 15.3922 30.6826 15.1738 30.4651C14.7373 30.0306 14.2328 29.4412 13.7545 28.7699C12.7874 27.4126 11.9729 25.7843 11.9729 24.4512H11.3729C11.3729 25.9809 12.2838 27.7399 13.2659 29.1181C13.7621 29.8146 14.2882 30.43 14.7504 30.8903C14.9814 31.1203 15.1997 31.3148 15.3932 31.4621C15.579 31.6035 15.7678 31.7218 15.9361 31.7699L16.101 31.193ZM34.2537 24.4512C34.2537 25.7841 33.4393 27.4123 32.4722 28.7696C31.9939 29.4409 31.4894 30.0302 31.053 30.4648C30.8346 30.6823 30.6365 30.8577 30.47 30.9845C30.2957 31.1172 30.1809 31.1772 30.1254 31.193L30.2906 31.7699C30.4589 31.7217 30.6477 31.6033 30.8335 31.4619C31.027 31.3145 31.2454 31.1199 31.4763 30.89C31.9386 30.4297 32.4646 29.8142 32.9609 29.1178C33.9428 27.7396 34.8537 25.9808 34.8537 24.4512H34.2537ZM30.508 31.4814C30.508 29.5861 31.2819 28.0308 32.2003 26.8749C33.1221 25.7148 34.1745 24.9762 34.6879 24.7195L34.4196 24.1828C33.8252 24.48 32.7048 25.2755 31.7306 26.5016C30.7531 27.7319 29.908 29.4148 29.908 31.4814H30.508ZM6.56453 25.7131C7.13848 25.7073 8.41197 25.8844 9.76137 26.4962C11.106 27.1058 12.5041 28.1367 13.3688 29.8234L13.9027 29.5497C12.9599 27.7106 11.4402 26.5986 10.0091 25.9498C8.5829 25.3032 7.22302 25.1064 6.55851 25.1131L6.56453 25.7131ZM13.5775 29.3922C13.5211 29.4034 13.3916 29.4025 13.1761 29.3639C12.9702 29.3271 12.7139 29.2614 12.4204 29.1675C11.8337 28.9799 11.116 28.6857 10.3841 28.3065C8.9043 27.54 7.43666 26.4625 6.82849 25.2762L6.29456 25.5499C6.99245 26.9113 8.60552 28.0609 10.1081 28.8393C10.8674 29.2326 11.6163 29.5403 12.2376 29.739C12.548 29.8383 12.831 29.9118 13.0705 29.9546C13.3003 29.9957 13.5222 30.0148 13.694 29.9808L13.5775 29.3922ZM39.3971 25.2762C38.789 26.4624 37.3218 27.5396 35.8424 28.3062C35.1107 28.6853 34.3931 28.9796 33.8065 29.1672C33.5129 29.2611 33.2566 29.3269 33.0507 29.3638C32.8351 29.4024 32.7055 29.4033 32.6488 29.3922L32.5328 29.9809C32.7046 30.0147 32.9265 29.9955 33.1564 29.9544C33.3959 29.9115 33.6789 29.838 33.9893 29.7387C34.6105 29.54 35.3593 29.2323 36.1184 28.8389C37.6207 28.0606 39.2332 26.9111 39.931 25.5499L39.3971 25.2762ZM32.8578 29.8234C33.7224 28.137 35.1202 27.1061 36.4646 26.4965C37.8137 25.8846 39.087 25.7074 39.6611 25.7131L39.667 25.1131C39.0024 25.1065 37.6427 25.3034 36.2167 25.95C34.786 26.5989 33.2666 27.7109 32.3239 29.5497L32.8578 29.8234ZM9.15257 20.6821C10.0117 21.7323 10.7887 23.5725 9.77477 25.8997L10.3248 26.1394C11.4495 23.5579 10.5821 21.4819 9.61696 20.3022L9.15257 20.6821ZM10.2407 25.7881C10.2405 25.7879 10.241 25.7883 10.2407 25.7881C10.2404 25.7879 10.2408 25.7882 10.2405 25.7879C10.2403 25.7878 10.2401 25.7876 10.2398 25.7873C10.2392 25.7868 10.2383 25.7859 10.2372 25.7848C10.2349 25.7826 10.2318 25.7794 10.2279 25.775C10.2201 25.7661 10.2101 25.7536 10.1983 25.737C10.1744 25.7034 10.1463 25.6577 10.1151 25.5989C10.0525 25.4813 9.98392 25.3241 9.9143 25.1334C9.77528 24.7527 9.63908 24.2571 9.54071 23.717C9.34102 22.6205 9.31061 21.4136 9.6598 20.612L9.10973 20.3724C8.68633 21.3443 8.74577 22.7008 8.95042 23.8245C9.05421 24.3944 9.1988 24.9232 9.35069 25.3392C9.42653 25.5469 9.50591 25.7313 9.58531 25.8806C9.65998 26.021 9.7505 26.1615 9.85886 26.2509L10.2407 25.7881ZM36.6957 20.9001C37.0191 21.6425 36.9916 22.7641 36.8053 23.7867C36.7136 24.2899 36.5867 24.7514 36.4574 25.1056C36.3926 25.283 36.3289 25.4288 36.271 25.5375C36.2422 25.5918 36.2165 25.6337 36.1948 25.6642C36.184 25.6792 36.1752 25.6903 36.1684 25.6979C36.1614 25.7058 36.1581 25.7085 36.1587 25.708L36.5405 26.1709C36.6448 26.0848 36.7309 25.9508 36.8008 25.8193C36.8755 25.6788 36.9499 25.5059 37.021 25.3114C37.1632 24.9219 37.2985 24.4272 37.3956 23.8943C37.5869 22.8445 37.6434 21.5733 37.2457 20.6605L36.6957 20.9001ZM36.6246 25.8196C35.6819 23.6559 36.4045 21.9461 37.2029 20.9703L36.7385 20.5903C35.8342 21.6955 35.021 23.6412 36.0746 26.0593L36.6246 25.8196ZM3.95338 21.0034C5.66522 21.2727 7.97179 22.3657 8.98459 25.4405L9.55447 25.2528C8.45488 21.9145 5.92366 20.706 4.04662 20.4107L3.95338 21.0034ZM9.25759 25.0469C9.20237 25.0491 9.09325 25.0366 8.9281 24.9935C8.76834 24.9518 8.57302 24.8859 8.35233 24.7946C7.911 24.6121 7.38022 24.3328 6.84514 23.9578C5.77099 23.2049 4.70968 22.0878 4.28829 20.624L3.71171 20.79C4.18445 22.4322 5.36175 23.6508 6.50076 24.4491C7.07226 24.8497 7.64168 25.15 8.12297 25.349C8.36358 25.4486 8.58516 25.5241 8.7765 25.574C8.96244 25.6226 9.13862 25.6521 9.28148 25.6464L9.25759 25.0469ZM41.9334 20.624C41.512 22.0876 40.4512 23.2045 39.3773 23.9574C38.8424 24.3324 38.3118 24.6117 37.8705 24.7943C37.6498 24.8856 37.4545 24.9516 37.2947 24.9933C37.1295 25.0365 37.0203 25.0491 36.9648 25.0469L36.9414 25.6465C37.0843 25.652 37.2604 25.6225 37.4464 25.5738C37.6378 25.5238 37.8594 25.4483 38.0999 25.3487C38.5812 25.1495 39.1505 24.8492 39.7218 24.4486C40.8605 23.6503 42.0373 22.4319 42.51 20.79L41.9334 20.624ZM37.2381 25.4405C38.2508 22.366 40.5566 21.2728 42.2683 21.0034L42.175 20.4107C40.298 20.7061 37.7677 21.9149 36.6682 25.2528L37.2381 25.4405ZM4.89292 16.5607C6.43922 17.3428 8.298 19.0916 8.31719 22.3289L8.91718 22.3254C8.89634 18.8107 6.85935 16.8829 5.16372 16.0253L4.89292 16.5607ZM8.69819 22.0383C8.64473 22.0233 8.54457 21.9777 8.40062 21.8859C8.26134 21.797 8.09568 21.6742 7.91371 21.5195C7.54981 21.2101 7.13056 20.7812 6.73669 20.2599C5.946 19.2135 5.27951 17.8247 5.32817 16.3026L4.72847 16.2834C4.67388 17.991 5.41955 19.512 6.25798 20.6217C6.67866 21.1784 7.1282 21.6391 7.52503 21.9766C7.72341 22.1453 7.9111 22.2853 8.07785 22.3917C8.23994 22.4951 8.39851 22.5774 8.53619 22.616L8.69819 22.0383ZM40.8935 16.3026C40.9422 17.8249 40.2755 19.214 39.4848 20.2605C39.0908 20.7818 38.6716 21.2106 38.3077 21.5199C38.1258 21.6746 37.9601 21.7973 37.8209 21.8861C37.677 21.9779 37.577 22.0233 37.5237 22.0382L37.6853 22.6161C37.823 22.5776 37.9815 22.4953 38.1436 22.392C38.3103 22.2856 38.498 22.1457 38.6964 21.977C39.0932 21.6397 39.5427 21.179 39.9635 20.6222C40.802 19.5125 41.5478 17.9913 41.4932 16.2834L40.8935 16.3026ZM37.9045 22.3289C37.9237 19.0917 39.7825 17.3428 41.3288 16.5607L41.058 16.0253C39.3624 16.8829 37.3253 18.8108 37.3045 22.3254L37.9045 22.3289ZM10.6836 13.7803C11.0559 15.4727 10.8777 18.0187 8.38212 20.0813L8.76436 20.5437C11.4738 18.3044 11.6778 15.5071 11.2696 13.6514L10.6836 13.7803ZM8.84809 20.1922C8.82594 20.1416 8.79785 20.0355 8.77791 19.866C8.75862 19.702 8.74889 19.4961 8.75359 19.2573C8.76301 18.7799 8.8299 18.1839 8.98446 17.549C9.29474 16.2746 9.94887 14.8795 11.1588 13.9541L10.7943 13.4775C9.43693 14.5156 8.7305 16.0557 8.40149 17.4071C8.23641 18.0852 8.16398 18.7248 8.15371 19.2455C8.14858 19.5058 8.15891 19.7397 8.18202 19.9361C8.20447 20.1269 8.24109 20.3018 8.2984 20.4328L8.84809 20.1922ZM35.0707 13.9541C36.2807 14.8795 36.9348 16.2745 37.2451 17.549C37.3996 18.1839 37.4665 18.7799 37.4759 19.2573C37.4806 19.4961 37.4709 19.702 37.4516 19.866C37.4316 20.0355 37.4036 20.1416 37.3814 20.1922L37.9311 20.4328C37.9884 20.3018 38.025 20.1269 38.0475 19.9361C38.0706 19.7397 38.0809 19.5058 38.0758 19.2455C38.0655 18.7248 37.9931 18.0852 37.8281 17.4071C37.4991 16.0557 36.7926 14.5156 35.4352 13.4775L35.0707 13.9541ZM37.8474 20.0813C35.352 18.0187 35.1736 15.4726 35.5459 13.7803L34.9599 13.6514C34.5517 15.507 34.7559 18.3044 37.4651 20.5437L37.8474 20.0813ZM4.96062 11.6523C6.35112 12.7405 8.01799 14.5936 7.41145 17.749L8.00066 17.8623C8.66878 14.3865 6.80099 12.3306 5.3304 11.1798L4.96062 11.6523ZM7.84143 17.5379C7.71667 17.4749 7.45325 17.2628 7.12864 16.8993C6.81227 16.545 6.45915 16.0707 6.1492 15.5119C5.52715 14.3903 5.09567 12.9601 5.43776 11.4837L4.85325 11.3483C4.46578 13.0205 4.96078 14.6062 5.6245 15.8029C5.95743 16.4032 6.33701 16.9136 6.68109 17.2989C7.01691 17.675 7.34165 17.9576 7.57068 18.0734L7.84143 17.5379ZM40.78 11.4837C41.1222 12.9601 40.6907 14.3903 40.0686 15.5119C39.7587 16.0707 39.4055 16.545 39.0892 16.8993C38.7645 17.2628 38.5011 17.4749 38.3763 17.5379L38.6471 18.0734C38.8761 17.9576 39.2009 17.675 39.5367 17.2989C39.8808 16.9136 40.2604 16.4032 40.5933 15.8029C41.257 14.6062 41.752 13.0205 41.3645 11.3483L40.78 11.4837ZM38.8063 17.749C38.1998 14.5938 39.8667 12.7405 41.2572 11.6523L40.8874 11.1798C39.4168 12.3307 37.549 14.3867 38.2171 17.8623L38.8063 17.749ZM37.555 9.6666C38.2862 10.5988 38.4565 11.7573 38.3869 12.766C38.3523 13.2682 38.2586 13.7243 38.1514 14.0821C38.0405 14.4517 37.9248 14.684 37.8635 14.7621L38.3357 15.1324C38.469 14.9623 38.6104 14.6402 38.7261 14.2544C38.8453 13.8568 38.9476 13.3567 38.9855 12.8073C39.061 11.7128 38.8823 10.3866 38.0271 9.29629L37.555 9.6666ZM38.3603 14.7988C37.2343 12.8211 37.7065 10.7945 38.0781 9.56846L37.5039 9.39443C37.1248 10.6451 36.5817 12.8877 37.8389 15.0957L38.3603 14.7988ZM8.15528 9.54014C8.52834 10.771 9.00277 12.8063 7.87211 14.792L8.39351 15.0889C9.65536 12.8728 9.11 10.6216 8.72949 9.36611L8.15528 9.54014ZM8.36884 14.7553C8.30723 14.6767 8.19103 14.4434 8.07972 14.0723C7.97198 13.713 7.8779 13.255 7.84311 12.7508C7.77322 11.7378 7.94412 10.5744 8.67843 9.63828L8.20634 9.26797C7.34799 10.3622 7.16873 11.6934 7.24453 12.7921C7.28259 13.3436 7.38532 13.8455 7.50502 14.2446C7.62115 14.6318 7.76302 14.9551 7.89678 15.1256L8.36884 14.7553ZM14.2806 8.98684C13.5687 10.4356 12.2515 12.7306 9.48688 13.5925L9.66546 14.1653C12.6831 13.2245 14.0959 10.7233 14.8191 9.25144L14.2806 8.98684ZM9.87507 13.9046C9.88704 13.7653 9.98548 13.4419 10.2017 13.005C10.4124 12.5793 10.7208 12.0747 11.1237 11.5787C11.9323 10.5831 13.0985 9.64908 14.596 9.41556L14.5036 8.82272C12.8075 9.0872 11.5207 10.1381 10.658 11.2004C10.2252 11.7333 9.89316 12.2759 9.66398 12.7389C9.44029 13.1908 9.29926 13.5975 9.27727 13.8532L9.87507 13.9046ZM31.6374 9.41556C33.1349 9.64908 34.3011 10.5831 35.1097 11.5787C35.5126 12.0747 35.821 12.5793 36.0317 13.005C36.2479 13.4419 36.3464 13.7653 36.3583 13.9046L36.9561 13.8532C36.9341 13.5975 36.7931 13.1908 36.5694 12.7389C36.3402 12.2759 36.0082 11.7333 35.5754 11.2004C34.7127 10.1381 33.4259 9.0872 31.7298 8.82272L31.6374 9.41556ZM36.7465 13.5925C33.9819 12.7306 32.6647 10.4356 31.9528 8.98684L31.4143 9.25144C32.1375 10.7233 33.5503 13.2245 36.5679 14.1653L36.7465 13.5925ZM10.7042 4.6761C11.0788 5.30433 11.2871 6.38269 11.1563 7.62032C11.0265 8.84932 10.5655 10.1998 9.64638 11.3639L10.1173 11.7357C11.1154 10.4715 11.6129 9.01005 11.753 7.68335C11.8922 6.36528 11.6819 5.14413 11.2196 4.36882L10.7042 4.6761ZM10.127 11.3769C10.0963 11.3333 10.0482 11.2353 9.99586 11.0708C9.9453 10.9121 9.89622 10.7092 9.85508 10.4704C9.77281 9.9929 9.72459 9.38495 9.75459 8.72111C9.81483 7.38799 10.1881 5.86884 11.1882 4.71938L10.7356 4.32554C9.61413 5.6145 9.21887 7.28505 9.1552 8.69403C9.12324 9.40124 9.17423 10.0524 9.26379 10.5723C9.30856 10.8321 9.36354 11.0626 9.42415 11.2529C9.48291 11.4374 9.55314 11.6043 9.63669 11.7227L10.127 11.3769ZM35.0334 4.71938C36.0336 5.86884 36.4069 7.38799 36.4671 8.72111C36.4971 9.38494 36.4489 9.99289 36.3666 10.4704C36.3255 10.7092 36.2764 10.912 36.2258 11.0708C36.1734 11.2353 36.1254 11.3333 36.0947 11.3769L36.585 11.7227C36.6685 11.6043 36.7388 11.4374 36.7975 11.2529C36.8581 11.0626 36.9131 10.8321 36.9579 10.5723C37.0475 10.0524 37.0985 9.40123 37.0665 8.69402C37.0028 7.28505 36.6076 5.61449 35.4861 4.32554L35.0334 4.71938ZM36.5753 11.3639C35.6563 10.1998 35.1952 8.84933 35.0654 7.62032C34.9347 6.38268 35.1429 5.30432 35.5174 4.6761L35.0021 4.36882C34.5398 5.14412 34.3295 6.36528 34.4687 7.68335C34.6089 9.01005 35.1063 10.4715 36.1044 11.7357L36.5753 11.3639ZM15.1997 4.01968C15.2477 4.74951 14.9428 5.80452 14.2636 6.8473C13.5892 7.88281 12.5645 8.87595 11.2166 9.49495L11.467 10.0402C12.9308 9.36797 14.0383 8.29259 14.7664 7.17476C15.4897 6.0642 15.8576 4.88103 15.7984 3.98032L15.1997 4.01968ZM11.6388 9.72503C11.6312 9.67227 11.633 9.56315 11.6612 9.39281C11.6883 9.22843 11.7368 9.02548 11.8088 8.79408C11.9526 8.33141 12.1861 7.76805 12.5146 7.19049C13.1744 6.03062 14.1977 4.84739 15.6111 4.27829L15.387 3.72171C13.8021 4.35986 12.6905 5.66794 11.9931 6.89382C11.6431 7.50912 11.3924 8.11224 11.2358 8.61595C11.1575 8.86774 11.1017 9.09795 11.0692 9.295C11.0376 9.48608 11.0243 9.66665 11.0448 9.81012L11.6388 9.72503ZM30.6145 4.27829C32.0279 4.8474 33.0512 6.03065 33.711 7.19052C34.0395 7.76809 34.273 8.33145 34.4168 8.79411C34.4888 9.0255 34.5373 9.22845 34.5644 9.39282C34.5926 9.56316 34.5944 9.67227 34.5868 9.72501L35.1808 9.81014C35.2013 9.66667 35.188 9.4861 35.1564 9.29502C35.1239 9.09798 35.0681 8.86777 34.9898 8.61598C34.8332 8.11228 34.5825 7.50916 34.2325 6.89385C33.5352 5.66797 32.4235 4.35987 30.8386 3.72171L30.6145 4.27829ZM35.009 9.49496C33.6612 8.87593 32.6365 7.88277 31.9621 6.84726C31.2829 5.80446 30.9779 4.74947 31.0259 4.01968L30.4272 3.98032C30.368 4.88102 30.736 6.06417 31.4593 7.17472C32.1874 8.29255 33.2949 9.36793 34.7586 10.0402L35.009 9.49496Z" fill="#00F7A5" />
</svg>
