<svg width="20" height="20" viewBox="0 0 20 20" fill="none" xmlns="http://www.w3.org/2000/svg">
<g clip-path="url(#clip0_6537_5145)">
<path d="M0 0H20V20H0V0Z" fill="black"/>
<path d="M7.84549 3.60194C8.06875 3.57317 8.45493 3.59321 8.68706 3.59327L10.0975 3.5931L11.4387 3.59327C13.0682 3.59454 12.7008 3.67591 13.7952 4.75565L15.4756 6.43511C15.7091 6.66634 16.0228 6.9113 16.2165 7.16237C16.4739 7.49583 16.4083 8.19731 16.4077 8.6119L16.4057 10.1521L16.4079 11.5355C16.4098 12.9529 16.3842 12.6828 15.4256 13.6298L13.8668 15.1866C13.7148 15.3365 13.5656 15.4893 13.4195 15.645C13.0053 16.0951 12.8813 16.3453 12.2265 16.4025C11.2206 16.4201 10.1967 16.398 9.18625 16.406C8.63067 16.3912 8.04618 16.4409 7.49643 16.3705C7.17991 16.33 6.84436 15.916 6.64375 15.6979C6.48272 15.5255 6.31823 15.3563 6.1504 15.1905L4.56545 13.6081C3.49344 12.5484 3.59522 12.8523 3.59383 11.2733L3.59327 9.81272L3.59366 8.59933C3.59465 7.09306 3.59237 7.36806 4.5868 6.38339L6.19098 4.78235C6.40288 4.57263 6.6327 4.33503 6.82881 4.11145C7.15756 3.73669 7.34735 3.63931 7.84549 3.60194Z" fill="#FEFEFE"/>
<path d="M6.22602 5.29912C6.40037 5.27332 7.03442 5.28752 7.23877 5.28817L9.16914 5.28836L12.1962 5.28653C12.58 5.28637 13.0106 5.29547 13.3904 5.28649C14.8475 5.25197 14.7276 6.13194 14.7276 7.24217L14.7275 9.31983L14.727 12.183C14.7272 12.5494 14.7227 12.9353 14.7271 13.3005C14.7362 14.0423 14.645 14.5441 13.8205 14.7125C13.6201 14.7413 12.9963 14.7273 12.7704 14.7272L10.6353 14.7262L7.74696 14.7275C7.3575 14.7276 6.6178 14.7492 6.2541 14.7166C6.05678 14.6997 5.86674 14.6341 5.70106 14.5256C5.36434 14.3011 5.28955 13.9106 5.28768 13.5327C5.28612 13.2201 5.28735 12.9072 5.28778 12.5946L5.28891 10.2187L5.28793 7.57832C5.28787 7.12781 5.27912 6.65629 5.30075 6.20779C5.30643 6.08986 5.41455 5.7874 5.4883 5.68742C5.67498 5.4343 5.93479 5.34852 6.22602 5.29912Z" fill="black"/>
</g>
<defs>
<clipPath id="clip0_6537_5145">
<rect width="20" height="20" rx="10" fill="white"/>
</clipPath>
</defs>
</svg>
