<svg width="40" height="40" viewBox="0 0 40 40" fill="none" xmlns="http://www.w3.org/2000/svg">
<rect width="40" height="40" rx="8" fill="url(#telegram-icon-gradient)"/>
<path d="M8.32368 19.8266L21.7919 14.2775C23.1214 13.6994 27.63 11.8497 27.63 11.8497C27.63 11.8497 29.711 11.0405 29.5376 13.0058C29.4797 13.815 29.0173 16.6474 28.5549 19.711L27.1098 28.7861C27.1098 28.7861 26.9942 30.1156 26.0115 30.3468C25.0289 30.578 23.4104 29.5376 23.1214 29.3064C22.8902 29.1329 18.7861 26.5318 17.2832 25.2601C16.8786 24.9133 16.4162 24.2197 17.341 23.4104C19.4219 21.5029 21.9075 19.1329 23.4104 17.6301C24.104 16.9364 24.7977 15.3179 21.9075 17.2832L13.7572 22.7746C13.7572 22.7746 12.8324 23.3526 11.0982 22.8324C9.36414 22.3121 7.34102 21.6185 7.34102 21.6185C7.34102 21.6185 5.95374 20.7514 8.32368 19.8266Z" fill="white"/>
<defs>
<linearGradient id="telegram-icon-gradient" x1="34" y1="7" x2="17.5" y2="23" gradientUnits="userSpaceOnUse">
<stop stop-color="#1E96C8"/>
<stop offset="1" stop-color="#37AEE2"/>
</linearGradient>
</defs>
</svg>
