<svg width="20" height="20" viewBox="0 0 20 20" fill="none" xmlns="http://www.w3.org/2000/svg">
<g clip-path="url(#clip0_6537_5104)">
<path d="M0 0H20V20H0V0Z" fill="#1360FE"/>
<path d="M3.77246 4.92943C4.15996 4.33516 5.17291 3.49146 5.77582 3.11916C6.52805 2.64885 7.35164 2.30379 8.21445 2.09742C8.34805 2.06685 8.58889 2.00799 8.72086 2.03908C8.79268 2.12697 8.77795 2.45101 8.7833 2.58549C8.78607 2.49541 8.78232 2.30217 8.80801 2.23035C8.85967 2.32758 8.81516 3.98641 8.84721 4.26467C9.10547 4.25285 9.36422 4.25652 9.62205 4.27566C9.64918 4.69687 9.63426 5.22935 9.63285 5.65892L9.62727 7.8939C8.9132 8.09203 8.91445 8.18707 8.40328 8.60691C8.22687 8.52516 7.92853 8.33088 7.74436 8.22342L6.51102 7.50918C6.18406 7.31601 5.56768 6.99447 5.30828 6.78627C5.3757 6.55199 5.53857 6.28637 5.66883 6.08195C5.49336 5.95556 5.37674 5.87685 5.19188 5.76601C4.80016 5.53113 4.09143 5.22182 3.77246 4.92943Z" fill="#FEFEFE"/>
<path d="M8.78327 2.58512C8.78604 2.49504 8.78229 2.3018 8.80798 2.22998C8.85964 2.32721 8.81512 3.98604 8.84717 4.2643L8.80684 4.25104C8.76497 4.13881 8.78087 2.79418 8.78327 2.58512Z" fill="#1062F1"/>
<path d="M2.52333 7.14062C2.7518 7.14191 3.01936 7.35449 3.21807 7.46541C3.62546 7.69281 4.0627 8.00783 4.50256 8.16107C4.63489 7.93281 4.757 7.69553 4.91005 7.48193C5.29727 7.67031 5.83926 8.00055 6.21766 8.22385C6.82087 8.57285 7.41792 8.9324 8.00854 9.30232C7.87514 9.71672 7.88059 10.2813 8.00598 10.6974C7.46249 11.041 6.93219 11.3456 6.38417 11.6773C6.16776 11.8125 5.93247 11.9378 5.70995 12.0655C5.44391 12.2182 5.1738 12.3868 4.90014 12.5227C4.76549 12.352 4.57235 12.0321 4.43671 11.8349C4.11823 12.0249 3.80186 12.2184 3.48764 12.4153C3.31512 12.5239 2.72106 12.9476 2.54297 12.8729C2.42167 12.7577 2.31301 12.3205 2.26721 12.1391C1.93194 10.8108 1.91648 9.46348 2.20299 8.12547C2.26614 7.83055 2.37569 7.39346 2.52333 7.14062Z" fill="#FEFEFE"/>
<path d="M11.1978 2.02789C11.4719 2.02613 11.6903 2.06787 11.9569 2.1358C13.3238 2.4957 14.573 3.20628 15.581 4.19722C15.8258 4.43833 16.0142 4.60806 16.1909 4.90525C15.9964 5.09289 15.7159 5.2389 15.4798 5.37533C15.0657 5.61451 14.7078 5.79343 14.3238 6.08445C14.4494 6.29949 14.6057 6.54976 14.6906 6.77867C14.5399 6.92749 14.3938 7.00589 14.2095 7.10871C13.5713 7.44958 12.9416 7.85722 12.3 8.20214C12.0691 8.32628 11.8457 8.49558 11.6048 8.60761C11.509 8.53343 11.4004 8.42404 11.3037 8.34275C11.0421 8.12281 10.7054 7.979 10.3753 7.89677C10.3676 6.68447 10.3671 5.4721 10.3739 4.25978L11.2111 4.24007C11.212 3.52164 11.1666 2.73488 11.1978 2.02789Z" fill="#FEFEFE"/>
<path d="M11.5557 11.42C11.7148 11.4138 12.1518 11.7115 12.3225 11.812L13.4212 12.4508C13.7973 12.6717 14.3882 12.9738 14.7077 13.2207C14.6116 13.4673 14.4764 13.6896 14.3428 13.9171C14.9374 14.3742 15.706 14.6403 16.2265 15.0583C15.8644 15.65 14.8552 16.4749 14.2726 16.853C13.4612 17.3528 12.3622 17.8537 11.3956 17.9638C11.3361 17.9705 11.2911 17.9627 11.2487 17.9243C11.1994 17.7517 11.2128 17.196 11.2126 16.9882L11.2099 15.7385C10.9314 15.7375 10.653 15.732 10.3747 15.722C10.3513 15.2515 10.3631 14.7826 10.3652 14.3114L10.3722 12.1116C10.936 11.9348 11.1402 11.8345 11.5557 11.42Z" fill="#FEFEFE"/>
<path d="M8.3791 11.4043C8.50077 11.431 8.70105 11.6881 8.81911 11.7606C9.07806 11.9196 9.34343 12.0173 9.62523 12.1178L9.63017 14.3785C9.63117 14.8157 9.64181 15.3037 9.61954 15.7364L8.78818 15.7567C8.78865 15.9761 8.8455 17.8815 8.77175 17.9759C8.64349 18.004 8.43238 17.9529 8.30029 17.9253C7.45911 17.7491 6.5929 17.3621 5.85158 16.9275C5.20095 16.5486 4.45488 15.8755 3.94603 15.3139C3.90265 15.266 3.83392 15.1606 3.84617 15.0929C3.85556 15.041 3.94349 14.9742 3.98702 14.9464C4.5474 14.5879 5.15441 14.2953 5.69904 13.9122C5.56161 13.7363 5.38868 13.4161 5.2946 13.2181C5.51984 13.0217 5.91876 12.8198 6.18927 12.6648L7.50189 11.9104C7.76845 11.7597 8.11658 11.529 8.3791 11.4043Z" fill="#FEFEFE"/>
<path d="M17.3189 7.10954C17.5943 7.08079 17.6091 7.43835 17.6664 7.63892C18.1063 9.17826 18.1061 10.8585 17.6638 12.398C17.6257 12.5307 17.5762 12.7427 17.4824 12.8404C17.4203 12.8628 17.3721 12.8471 17.3115 12.8172C16.6937 12.5124 16.1332 12.1134 15.5057 11.8229C15.3722 12.0724 15.2606 12.2922 15.0835 12.5157C14.7401 12.356 14.0955 11.9548 13.738 11.7492C13.1529 11.3909 12.5614 11.0783 11.9985 10.6884C12.1226 10.3111 12.1024 9.68755 11.998 9.30619C12.4348 9.00341 13.0352 8.66843 13.5033 8.39482C13.9458 8.13607 14.6533 7.68622 15.1067 7.49163C15.2428 7.6337 15.4133 7.96486 15.5534 8.1565C15.8975 7.96433 16.2362 7.76269 16.5691 7.55179C16.7881 7.41427 17.0887 7.21402 17.3189 7.10954Z" fill="#FEFEFE"/>
</g>
<defs>
<clipPath id="clip0_6537_5104">
<rect width="20" height="20" rx="10" fill="white"/>
</clipPath>
</defs>
</svg>
