<svg width="28" height="28" viewBox="0 0 28 28" fill="none" xmlns="http://www.w3.org/2000/svg">
<rect width="28" height="28" rx="14" fill="#0666FF"/>
<path d="M6.73694 13.0146C7.01582 13.0689 7.84542 13.9521 8.11447 14.2147L10.369 16.4244L12.6191 14.2308C12.8696 13.9866 13.7182 13.0842 14.0012 13.0207C14.4335 13.1367 16.3925 15.3373 16.8974 15.7246C17.008 15.8094 17.4876 16.2981 17.6023 16.425C17.8901 16.1713 18.1951 15.8571 18.4717 15.5867L20.0125 14.0774C20.2703 13.8249 20.9559 13.0828 21.2565 13.0263C21.6101 13.1151 22.3035 13.9378 22.5913 14.2194C22.6684 14.2949 22.6699 14.5105 22.5914 14.5972C22.1741 15.0578 21.7033 15.4846 21.257 15.9209C20.2721 16.8636 19.3116 17.836 18.3302 18.7828C18.1503 18.9563 17.8641 19.2789 17.6165 19.3218C17.506 19.2949 17.3729 19.2051 17.2907 19.1283C16.1788 18.0903 15.1259 16.9675 14.0089 15.9362C13.1415 16.7496 12.3057 17.6089 11.4463 18.4314C11.156 18.7093 10.8748 19.0267 10.5485 19.2602C10.3794 19.3813 10.222 19.2948 10.0915 19.168C9.76629 18.8621 9.44492 18.5477 9.12539 18.2373L7.28089 16.4387L6.2251 15.4122C5.96844 15.1638 5.51152 14.7616 5.34222 14.4772C5.29513 14.1703 6.4527 13.1362 6.73694 13.0146Z" fill="white"/>
<path d="M13.9742 8.7373C16.0917 8.7818 17.8711 9.51036 19.3529 11.0344C19.5175 11.1947 19.6516 11.4287 19.4582 11.6325C19.1274 11.981 18.7564 12.3124 18.4199 12.6583C18.2745 12.7872 18.1565 12.9229 17.9872 12.7457C16.8422 11.5472 15.713 10.943 14.0062 10.8884C12.61 10.9242 11.4084 11.3812 10.4205 12.3584C10.2531 12.5239 10.0341 12.7596 9.83135 12.8671C9.63706 12.8672 8.71322 11.8498 8.52275 11.6833C8.33118 11.5159 8.41129 11.2837 8.57455 11.1111C10.0691 9.53122 11.8267 8.81806 13.9742 8.7373Z" fill="white"/>
</svg>
