<svg width="28" height="28" viewBox="0 0 28 28" fill="none" xmlns="http://www.w3.org/2000/svg">
    <g clip-path="url(#clip0_4217_99197)">
        <path d="M0 0H28V28H0V0Z" fill="black" />
        <path
            d="M20.6112 16.7603L21.4354 16.7606L21.436 20.4485L16.5838 20.4496L15.8024 20.4506C15.8002 20.176 15.8002 19.9014 15.8024 19.6268C16.4244 19.604 17.1109 19.6166 17.7395 19.6166L20.6096 19.6211C20.5802 18.7527 20.5992 17.6362 20.6112 16.7603Z"
            fill="#FEFEFE" />
        <path
            d="M6.50844 16.7593L7.31776 16.7612C7.2946 17.0889 7.30773 17.5641 7.30781 17.9036C7.3039 18.4769 7.30732 19.0502 7.31806 19.6233C8.89675 19.654 10.5168 19.6109 12.1045 19.6318L12.0958 20.4241C12.0433 20.4741 7.0303 20.4529 6.50781 20.4528L6.50844 16.7593Z"
            fill="#FEFEFE" />
        <path
            d="M15.802 7.49219L21.4378 7.4935L21.4337 11.1827L20.6103 11.1818L20.6037 8.29341L15.8038 8.29071C15.7983 8.0281 15.802 7.75564 15.802 7.49219Z"
            fill="#FEFEFE" />
        <path
            d="M12.107 11.1877L12.9586 11.1851L12.9594 16.0218L15.8018 16.0247L15.798 16.7576L12.1064 16.7559L12.107 11.1877Z"
            fill="#FEFEFE" />
        <path
            d="M6.50879 7.49312L12.1059 7.49219C12.0921 7.73426 12.0967 8.03994 12.0933 8.28707C11.1442 8.29869 10.1792 8.29021 9.22889 8.29054L7.31939 8.29046C7.27944 9.189 7.31067 10.2641 7.30892 11.183L6.5092 11.181L6.50879 7.49312Z"
            fill="#FEFEFE" />
    </g>
    <defs>
        <clipPath id="clip0_4217_99197">
            <rect width="28" height="28" rx="14" fill="white" />
        </clipPath>
    </defs>
</svg>
