<svg width="28" height="28" viewBox="0 0 28 28" fill="none" xmlns="http://www.w3.org/2000/svg">
    <rect width="28" height="28" rx="14" fill="#3F1FE1" />
    <path
        d="M11.2062 7H11.6375L11.6477 7.00623C11.7128 7.04549 11.8021 7.08377 11.8707 7.11617C12.142 7.24423 12.2623 7.45738 12.3395 7.74657C12.5367 8.49094 11.5646 8.78424 11.7527 9.52012C11.8157 9.76625 11.9712 10.0018 12.1866 10.1309C12.4975 10.3173 12.9321 10.2925 13.208 10.0502C13.4627 9.82656 13.6723 9.56691 13.9044 9.32098C14.0571 9.16283 14.2271 9.01273 14.384 8.85646L15.4538 7.77676C15.6378 7.59226 15.933 7.25427 16.1554 7.13748C16.4174 6.9999 16.8234 7.02035 17.0821 7.17719C17.5067 7.43454 17.6649 7.97424 17.4095 8.41915C17.2382 8.69289 16.9714 8.92241 16.7471 9.1516C16.4587 9.44169 16.1742 9.74545 15.8833 10.0319C15.5352 10.3746 15.3071 10.6253 15.4345 11.155C15.5484 11.6288 16.0599 11.9243 16.5206 11.8003C16.6205 11.7735 16.7313 11.7312 16.8136 11.6639C17.007 11.4761 17.1875 11.2733 17.3806 11.0813C18.0003 10.4601 18.6152 9.83384 19.2253 9.20269C19.4711 8.9482 19.9843 8.37879 20.2857 8.23243C21.1229 7.826 21.9915 8.75086 21.4865 9.58137C21.3338 9.84041 21.1416 9.98381 20.9384 10.1928L19.8463 11.302L18.7583 12.4056C18.6512 12.5129 18.5577 12.6314 18.4456 12.7343C18.1736 12.9819 17.9166 13.2434 17.6575 13.5047C17.4955 13.6681 17.3448 13.8109 17.2044 13.9953C16.6682 14.6997 17.3885 15.6245 18.193 15.4131C18.28 15.391 18.3613 15.3502 18.4316 15.2935C18.543 15.2018 18.8378 14.8718 18.9583 14.7449C19.1982 14.4818 19.4445 14.2521 19.7067 14.013C20.0267 13.7212 20.2128 13.4315 20.6911 13.4553C21.4402 13.4925 21.8184 14.2757 21.4412 14.9191C21.3176 15.1299 21.1837 15.1925 21.0236 15.3576L19.9513 16.4481C19.7768 16.6244 19.6238 16.8302 19.4539 16.9992C19.2282 17.2059 19.0118 17.4162 18.7927 17.6297C18.649 17.7697 18.4876 18.0087 18.3478 18.1254C17.9729 18.4384 17.6543 18.7871 17.3078 19.1239C16.7121 19.7031 15.9554 20.1752 15.2037 20.5085C14.8471 20.6498 14.4688 20.7385 14.1053 20.8513C13.6372 20.9965 13.2645 20.9883 12.793 20.9979C12.1816 21.0105 11.783 20.97 11.1984 20.8022C10.5696 20.6217 10.004 20.4261 9.44331 20.0701C8.36094 19.4111 7.51787 18.4755 6.98576 17.3081C6.8323 16.9714 6.67547 16.6303 6.58363 16.2655C6.53604 16.0764 6.49327 15.8781 6.45642 15.6861C6.42798 15.538 6.41281 15.2533 6.36328 15.1196V13.947C6.42444 13.7909 6.42537 13.4692 6.45959 13.2902C6.70138 12.0256 7.34442 10.7376 8.23474 9.82084C9.09758 8.93235 9.94823 8.03506 10.8445 7.18628C10.8906 7.14265 11.1231 7.04749 11.1956 7.00612L11.2062 7Z"
        fill="white" />
</svg>
