<svg width="28" height="28" viewBox="0 0 28 28" fill="none" xmlns="http://www.w3.org/2000/svg">
    <rect width="28" height="27.8911" rx="13.9455" fill="black" />
    <path
        d="M6.05961 8.42273L6.05486 7.23468C6.05399 6.9888 6.04741 6.7233 6.07901 6.48121C6.15783 5.87697 6.89232 5.30703 7.50011 5.40759C7.79616 5.45656 8.33426 5.77597 8.50388 6.02536C8.7122 6.18606 9.21091 6.70989 9.42617 6.91836C10.3322 7.79956 11.2294 8.68975 12.1177 9.58883L16.7411 14.1582C17.3337 14.7406 17.9976 15.3555 18.5734 15.938C18.6115 16.0296 21.0296 18.3657 21.2974 18.6286C21.4125 18.7416 21.7433 19.0099 21.8071 19.1346C21.9174 19.2174 22.0164 19.2398 22.0314 19.3457C22.0343 19.3665 22.0367 19.3874 22.0388 19.4084C22.0422 19.7834 22.0756 21.0898 21.9999 21.3741C21.9433 21.5804 21.8343 21.7686 21.6836 21.9204C21.0563 22.5574 20.1972 22.364 19.6228 21.7676C19.5851 21.729 19.5492 21.6886 19.5155 21.6464C19.1848 21.3355 18.91 21.0351 18.5945 20.7211L16.8421 18.9866L11.9945 14.2299L10.2556 12.5309C10.0108 12.2903 9.84228 12.0655 9.57398 11.834L9.52085 11.8411C9.39087 11.7712 8.91325 11.3032 8.92113 11.1656C8.88002 11.0984 6.14218 8.44869 6.12095 8.43523L6.05961 8.42273Z"
        fill="url(#paint0_linear_4217_99241)" />
    <path
        d="M9.52071 11.8405C9.39074 11.7705 8.91311 11.3026 8.92099 11.165C9.13027 11.383 9.3471 11.6461 9.57384 11.8334L9.52071 11.8405Z"
        fill="#3E1784" />
    <path
        d="M6.05968 8.42285L6.12102 8.43535C6.14225 8.44881 8.88009 11.0985 8.9212 11.1658C9.04583 11.3154 9.42908 11.6891 9.54409 11.8136C9.59123 12.0084 9.53477 12.6602 9.53453 12.9052L9.53638 15.5732C9.53643 15.9657 9.55491 16.4312 9.53747 16.8208C9.49605 17.7451 9.76704 18.4606 10.5608 18.9887C11.1924 19.409 11.8676 19.5772 12.6192 19.4115C13.3697 19.2628 13.5107 19.0016 14.0847 18.6708C14.2399 18.7875 14.4626 18.9751 14.5766 19.1348C15.2243 19.7184 16.03 20.4637 16.5932 21.1249C16.272 21.2901 15.8617 21.7189 15.4423 21.9532C13.8151 22.8622 12.0452 23.1649 10.2359 22.6104C9.93364 22.5177 8.88896 22.0781 8.6885 21.9015C8.46452 21.7694 7.89475 21.2906 7.71095 21.1021C6.96044 20.347 6.43399 19.3987 6.19009 18.3624C6.02783 17.6719 6.05744 16.9354 6.05766 16.2273L6.05751 14.3378C6.05642 12.3763 6.03721 10.3817 6.05968 8.42285Z"
        fill="url(#paint1_linear_4217_99241)" />
    <path
        d="M11.5156 6.64303C11.7394 6.47924 11.9691 6.23011 12.2075 6.06846C13.0233 5.51525 14.1119 5.00226 15.0923 4.93555L15.1089 4.94118C15.1605 4.95839 15.1737 4.96616 15.2276 4.95625L15.2581 4.98604L15.21 5.02197C15.217 5.05698 15.2208 5.06924 15.2319 5.10199C15.1821 5.17417 15.0991 5.24276 15.0973 5.31061C14.8579 5.44574 14.7072 5.71671 14.5032 5.90134C13.895 6.45163 13.3425 7.04416 12.7704 7.62785C12.7593 7.63919 12.5656 7.62657 12.5303 7.62859C12.1741 7.31482 11.8183 6.90051 11.5156 6.64303Z"
        fill="#AFD5FC" />
    <path fill-rule="evenodd" clip-rule="evenodd"
        d="M15.0923 4.93596C16.706 4.67885 18.3562 5.06657 19.6865 6.01557C20.508 6.60571 21.271 7.54424 21.635 8.50603L21.6691 8.59909L21.7069 8.68169C22.0843 9.53702 22.0442 10.468 22.0436 11.3807L22.0426 17.3837C22.0427 18.0471 22.0557 18.7504 22.0391 19.4082C22.037 19.3873 22.0346 19.3664 22.0317 19.3456C22.0166 19.2397 21.9177 19.2173 21.8074 19.1345C21.7435 19.0099 21.4128 18.7415 21.2977 18.6285C21.0299 18.3656 18.6122 16.0298 18.5737 15.9379C18.5761 15.909 18.5632 15.7149 18.5625 15.6638C18.5596 15.4204 18.5583 15.1768 18.5586 14.9333L18.5588 12.2925L18.5614 11.0868C18.5624 10.236 18.5888 9.78881 17.9719 9.09261C17.1482 8.16311 15.6408 8.07721 14.5896 8.65043C14.4146 8.74589 14.1846 8.97664 14.0358 9.11378C13.5336 8.59139 13.0335 8.16461 12.5303 7.62897C12.1741 7.31519 11.8183 6.90087 11.5156 6.64339C11.7394 6.47961 11.9691 6.23051 12.2074 6.06885C13.0233 5.51565 14.1119 5.00268 15.0923 4.93596Z"
        fill="url(#paint2_linear_4217_99241)" />
    <defs>
        <linearGradient id="paint0_linear_4217_99241" x1="6.74138" y1="5.95891" x2="20.6927" y2="22.3393"
            gradientUnits="userSpaceOnUse">
            <stop stop-color="#B55EFF" />
            <stop offset="0.538462" stop-color="#8384FE" />
            <stop offset="1" stop-color="#40C9FD" />
        </linearGradient>
        <linearGradient id="paint1_linear_4217_99241" x1="7.11506" y1="6.33273" x2="15.2741" y2="22.2771"
            gradientUnits="userSpaceOnUse">
            <stop stop-color="#8437FF" />
            <stop offset="0.485577" stop-color="#C385FE" />
            <stop offset="1" stop-color="#E9ADFE" />
        </linearGradient>
        <linearGradient id="paint2_linear_4217_99241" x1="16.7816" y1="4.8584" x2="16.7816" y2="19.4082"
            gradientUnits="userSpaceOnUse">
            <stop stop-color="#B6D7FF" />
            <stop offset="0.466346" stop-color="#49B7F1" />
            <stop offset="1" stop-color="#18A0EC" />
        </linearGradient>
    </defs>
</svg>
